<svg xmlns="http://www.w3.org/2000/svg" width="132" height="38" viewBox="0 0 132 38" role="img" aria-label="Kaggle"><title>Kaggle</title><style>[class]{transform-box:fill-box}@media (prefers-reduced-motion:reduce){*{animation:none!important}}</style><rect x="0.5" y="0.5" width="131" height="37" rx="18.5" fill="#111316" stroke="#2E333B"/><rect x="16" y="11" width="16" height="16" rx="4" fill="#9AA1AB"/><path transform="translate(20.2 23)" d="M2.14 0L0.53 0L0.53-7.56L2.14-7.56L2.14-4.47L5.03-7.56L7.18-7.56L3.59-3.93L7.39 0L5.20 0L2.14-3.34L2.14 0Z" fill="#0B0C0E"/><path transform="translate(40 24)" d="M2.50 0L0.81 0L0.81-9.36L2.50-9.36L2.50-5.34L6.46-9.36L8.74-9.36L4.12-4.86L9.00 0L6.67 0L2.50-4.34L2.50 0ZM15.90 0L14.26 0Q14.20-0.26 14.17-0.57L14.17-0.57Q14.14-0.78 14.13-1.04L14.13-1.04Q13.87-0.53 13.42-0.25L13.42-0.25Q12.82 0.13 11.96 0.13L11.96 0.13Q10.96 0.13 10.37-0.37Q9.78-0.87 9.78-1.72L9.78-1.72Q9.78-2.63 10.44-3.16Q11.10-3.69 12.31-3.87L12.31-3.87L14.08-4.15L14.08-4.47Q14.08-4.99 13.79-5.26Q13.49-5.53 12.90-5.53L12.90-5.53Q12.31-5.53 11.97-5.31Q11.62-5.10 11.54-4.69L11.54-4.69L9.97-4.69Q10.08-5.62 10.86-6.19Q11.63-6.76 12.95-6.76L12.95-6.76Q14.31-6.76 15.02-6.14Q15.72-5.53 15.72-4.33L15.72-4.33L15.72-1.33Q15.72-1.01 15.76-0.69Q15.81-0.36 15.90 0L15.90 0ZM14.08-2.33L14.08-3.11L12.58-2.87Q12.00-2.78 11.71-2.55Q11.41-2.31 11.41-1.90L11.41-1.90Q11.41-1.52 11.69-1.32Q11.96-1.12 12.44-1.12L12.44-1.12Q13.14-1.12 13.61-1.47Q14.08-1.82 14.08-2.33L14.08-2.33ZM20.29 2.80L20.29 2.80Q18.98 2.80 18.14 2.22Q17.30 1.65 17.15 0.68L17.15 0.68L18.71 0.68Q18.82 1.01 19.22 1.20Q19.62 1.39 20.25 1.39L20.25 1.39Q21.18 1.39 21.62 0.98Q22.06 0.57 22.06-0.26L22.06-0.26L22.06-1.30Q21.85-0.82 21.38-0.51L21.38-0.51Q20.75-0.07 19.82-0.07L19.82-0.07Q18.94-0.07 18.28-0.48Q17.63-0.90 17.26-1.64Q16.90-2.39 16.90-3.39L16.90-3.39Q16.90-4.41 17.28-5.16Q17.65-5.92 18.34-6.34Q19.02-6.76 19.93-6.76L19.93-6.76Q20.86-6.76 21.48-6.32L21.48-6.32Q21.92-5.98 22.11-5.46L22.11-5.46L22.11-6.63L23.71-6.63L23.71-0.27Q23.71 1.14 22.80 1.97Q21.88 2.80 20.29 2.80ZM20.36-1.37L20.36-1.37Q21.15-1.37 21.63-1.90Q22.10-2.44 22.10-3.42Q22.10-4.39 21.62-4.93Q21.14-5.46 20.34-5.46L20.34-5.46Q19.56-5.46 19.08-4.92Q18.60-4.38 18.60-3.41Q18.60-2.43 19.08-1.90Q19.56-1.37 20.36-1.37ZM28.37 2.80L28.37 2.80Q27.05 2.80 26.21 2.22Q25.38 1.65 25.22 0.68L25.22 0.68L26.78 0.68Q26.90 1.01 27.29 1.20Q27.69 1.39 28.33 1.39L28.33 1.39Q29.25 1.39 29.69 0.98Q30.13 0.57 30.13-0.26L30.13-0.26L30.13-1.30Q29.93-0.82 29.46-0.51L29.46-0.51Q28.82-0.07 27.90-0.07L27.90-0.07Q27.01-0.07 26.36-0.48Q25.70-0.90 25.34-1.64Q24.97-2.39 24.97-3.39L24.97-3.39Q24.97-4.41 25.35-5.16Q25.73-5.92 26.41-6.34Q27.09-6.76 28.00-6.76L28.00-6.76Q28.94-6.76 29.55-6.32L29.55-6.32Q29.99-5.98 30.19-5.46L30.19-5.46L30.19-6.63L31.79-6.63L31.79-0.27Q31.79 1.14 30.87 1.97Q29.95 2.80 28.37 2.80ZM28.43-1.37L28.43-1.37Q29.22-1.37 29.70-1.90Q30.17-2.44 30.17-3.42Q30.17-4.39 29.69-4.93Q29.21-5.46 28.42-5.46L28.42-5.46Q27.64-5.46 27.16-4.92Q26.68-4.38 26.68-3.41Q26.68-2.43 27.16-1.90Q27.64-1.37 28.43-1.37ZM35.16 0L33.53 0L33.53-9.36L35.16-9.36L35.16 0ZM39.88 0.13L39.88 0.13Q38.83 0.13 38.04-0.31Q37.26-0.75 36.82-1.53Q36.39-2.31 36.39-3.33Q36.39-4.34 36.82-5.12Q37.26-5.89 38.04-6.32Q38.82-6.76 39.86-6.76L39.86-6.76Q40.85-6.76 41.57-6.35Q42.30-5.94 42.70-5.20Q43.11-4.46 43.11-3.47L43.11-3.47Q43.11-3.29 43.09-3.13Q43.08-2.98 43.06-2.82L43.06-2.82L38.05-2.82Q38.14-2.11 38.52-1.68L38.52-1.68Q39-1.11 39.90-1.11L39.90-1.11Q40.42-1.11 40.81-1.30Q41.20-1.50 41.38-1.90L41.38-1.90L42.93-1.90Q42.60-0.96 41.83-0.42Q41.05 0.13 39.88 0.13ZM38.08-3.97L38.08-3.97L41.44-3.97Q41.38-4.67 41.03-5.06L41.03-5.06Q40.60-5.53 39.83-5.53L39.83-5.53Q39-5.53 38.52-4.95L38.52-4.95Q38.19-4.58 38.08-3.97Z" fill="#ECEDEF"/><circle cx="113" cy="19" r="13" fill="#16191D" stroke="#2E333B"/><path d="M109.4 22.6 L116.6 15.4 M109.7 15.4 H116.6 V22.3" fill="none" stroke="#F0A53A" stroke-width="1.6" stroke-linecap="round" stroke-linejoin="round"/></svg>
