<svg xmlns="http://www.w3.org/2000/svg" width="420" height="272" viewBox="0 0 420 272" role="img" aria-label="Discord LLMWiki, May 2026. Memory-augmented Discord community manager that builds a self-maintaining wiki from server conversations and handles onboarding and FAQs."><title>Discord LLMWiki, May 2026. Memory-augmented Discord community manager that builds a self-maintaining wiki from server conversations and handles onboarding and FAQs.</title><style>[class]{transform-box:fill-box}@media (prefers-reduced-motion:reduce){*{animation:none!important}}</style><g transform="translate(0 0)"><defs><linearGradient id="hi11" x1="0" y1="0" x2="0" y2="1"><stop offset="0" stop-color="#fff" stop-opacity=".08"/><stop offset=".45" stop-color="#fff" stop-opacity="0"/></linearGradient></defs><rect x="0.5" y="0.5" width="413" height="271" rx="20" fill="#111316" stroke="#22262C"/><rect x="1" y="1" width="412" height="270" rx="19.5" fill="none" stroke="url(#hi11)"/><path transform="translate(26 52)" d="M7.6-17.0L1.9-17.0L1.9 0L7.8 0C13.1 0 16.1-3.0 16.1-8.5C16.1-14.0 13.0-17.0 7.6-17.0ZM5.1-2.8L5.1-14.3L7.6-14.3C11.1-14.3 12.9-12.4 12.9-8.5C12.9-4.6 11.1-2.8 7.6-2.8ZM17.6-12.7L17.6 0L20.7 0L20.7-12.7ZM17.5-14.5L20.7-14.5L20.7-17.0L17.5-17.0ZM30.7-8.7L33.9-8.8C33.5-11.4 31.3-13.0 28.3-13.0C25.0-13.0 22.9-11.5 22.9-9C22.9-6.6 25.0-5.8 28.1-5.2C29.4-4.9 30.8-4.7 30.8-3.5C30.8-2.4 29.6-2.1 28.6-2.1C27.0-2.1 26.0-2.9 25.7-4.2L22.6-4.0C22.8-1.3 25.1 0.3 28.6 0.3C31.6 0.3 34.0-0.9 34.0-3.4C34.0-5.9 32.1-6.8 28.6-7.3C27.4-7.6 26.1-8.0 26.1-9.0C26.1-10.1 27-10.7 28.2-10.7C29.4-10.7 30.5-9.9 30.7-8.7ZM44.4-8.0L47.5-8.2C47.2-11.2 44.7-13.0 41.6-13.0C37.8-13.0 35.4-10.4 35.4-6.4C35.4-2.3 37.8 0.3 41.6 0.3C44.8 0.3 47.3-1.6 47.6-4.7L44.4-4.8C44.2-3.1 43.1-2.2 41.6-2.2C39.7-2.2 38.5-3.7 38.5-6.4C38.5-9.0 39.7-10.5 41.6-10.5C43.0-10.5 44.1-9.6 44.4-8.0ZM55.0 0.3C58.8 0.3 61.3-2.3 61.3-6.4C61.3-10.4 58.8-13.0 55.0-13.0C51.2-13.0 48.7-10.4 48.7-6.4C48.7-2.3 51.2 0.3 55.0 0.3ZM51.9-6.4C51.9-9.0 53.0-10.5 55.0-10.5C57.0-10.5 58.1-9.0 58.1-6.4C58.1-3.7 57.0-2.2 55.0-2.2C53.0-2.2 51.9-3.7 51.9-6.4ZM63.0-12.7L63.0 0L66.2 0L66.2-7.2C66.2-9.3 67.0-10.3 69.0-10.3L70.3-10.3L70.3-12.7L69.1-12.7C67.4-12.7 66.5-11.9 66.0-10.2L66.0-12.7ZM82.9-17.0L79.8-17.0L79.8-11.0C79.0-12.3 77.6-13.0 76.0-13.0C72.6-13.0 70.6-10.4 70.6-6.4C70.6-2.3 72.6 0.3 76.0 0.3C77.7 0.3 79.2-0.5 79.8-1.8L79.9 0L82.9 0ZM73.8-6.4C73.8-9.0 75.0-10.6 76.9-10.6C78.7-10.6 80.0-9.0 80.0-6.4C80.0-3.8 78.8-2.2 76.9-2.2C75.0-2.2 73.8-3.8 73.8-6.4ZM90.7 0L101.9 0L101.9-2.8L93.8-2.8L93.8-17.0L90.7-17.0ZM104.1 0L115.3 0L115.3-2.8L107.3-2.8L107.3-17.0L104.1-17.0ZM117.5-17.0L117.5 0L120.7 0L120.7-11.6L124.9-0.0L128.0-0.0L132.2-11.6L132.2 0L135.4 0L135.4-17.0L131.1-17.0L126.4-3.9L121.8-17.0ZM137.1-17.0L141.7 0L145.2 0L148.1-11.3L151.1 0L154.6 0L159.1-17.0L155.8-17.0L152.7-4.4L149.6-17.0L146.7-17.0L143.5-4.4L140.4-17.0ZM160.7-12.7L160.7 0L163.8 0L163.8-12.7ZM160.6-14.5L163.8-14.5L163.8-17.0L160.6-17.0ZM166.1-17.0L166.1 0L169.2 0L169.2-3.5L171.2-5.6L174.9 0L178.4 0L173.2-7.4L178.2-12.7L174.4-12.7L169.2-7.0L169.2-17.0ZM180.5-12.7L180.5 0L183.6 0L183.6-12.7ZM180.4-14.5L183.6-14.5L183.6-17.0L180.4-17.0Z" fill="#ECEDEF"/><circle cx="374" cy="40" r="14" fill="#16191D" stroke="#2E333B"/><path d="M370.1 43.9 L377.9 36.1 M370.5 36.1 H377.9 V43.5" fill="none" stroke="#F0A53A" stroke-width="1.6" stroke-linecap="round" stroke-linejoin="round"/><path transform="translate(26 78)" d="M4.06-0.96L3.14-0.96L1.63-7.16L1.63 0L0.60 0L0.60-8.52L2.16-8.52L3.60-2.51L5.04-8.52L6.60-8.52L6.60 0L5.57 0L5.57-7.16L4.06-0.96ZM9.96 0.14L9.96 0.14Q9.36 0.14 8.88-0.07Q8.40-0.29 8.12-0.68Q7.85-1.07 7.85-1.58L7.85-1.58Q7.85-2.40 8.33-2.85Q8.82-3.30 9.86-3.50L9.86-3.50L12-3.94Q12-4.75 11.63-5.15Q11.27-5.54 10.58-5.54L10.58-5.54Q9.92-5.54 9.55-5.25Q9.18-4.96 9.04-4.40L9.04-4.40L7.97-4.49Q8.15-5.39 8.83-5.95Q9.50-6.50 10.58-6.50L10.58-6.50Q11.74-6.50 12.37-5.81Q13.01-5.12 13.01-3.91L13.01-3.91L13.01-1.27Q13.01-1.06 13.10-0.97Q13.20-0.89 13.39-0.89L13.39-0.89L13.80-0.89L13.80 0Q13.73 0.01 13.57 0.02Q13.42 0.02 13.27 0.02L13.27 0.02Q12.86 0.02 12.58-0.11Q12.30-0.24 12.16-0.54L12.16-0.54Q12.08-0.68 12.04-0.89L12.04-0.89Q11.94-0.72 11.80-0.56L11.80-0.56Q11.47-0.23 10.99-0.04Q10.51 0.14 9.96 0.14ZM10.06-0.74L10.06-0.74Q10.70-0.74 11.14-0.97Q11.57-1.19 11.78-1.59Q12-1.99 12-2.52L12-2.52L12-3.07L10.06-2.69Q9.41-2.57 9.16-2.32Q8.90-2.08 8.90-1.68L8.90-1.68Q8.90-1.24 9.21-0.99Q9.52-0.74 10.06-0.74ZM16.86 1.80L16.03 1.80L16.03 0.91L16.76 0.91Q17.10 0.91 17.26 0.81Q17.42 0.71 17.51 0.48L17.51 0.48L17.74-0.12L17.39-0.12L15.02-6.36L16.13-6.36L18.06-1.06L19.87-6.36L20.98-6.36L18.40 0.80Q18.22 1.32 17.86 1.56Q17.50 1.80 16.86 1.80L16.86 1.80ZM35.40 0L29.40 0Q29.40-0.90 29.68-1.63Q29.96-2.35 30.68-3.01Q31.39-3.67 32.66-4.34L32.66-4.34Q33.25-4.66 33.61-4.92Q33.97-5.18 34.14-5.48Q34.31-5.78 34.31-6.22L34.31-6.22Q34.31-6.66 34.12-6.99Q33.92-7.32 33.55-7.51Q33.17-7.70 32.60-7.70L32.60-7.70Q31.70-7.70 31.18-7.24Q30.66-6.77 30.53-5.90L30.53-5.90L29.45-5.98Q29.59-7.22 30.41-7.97Q31.22-8.71 32.60-8.71L32.60-8.71Q33.48-8.71 34.10-8.40Q34.73-8.09 35.06-7.53Q35.39-6.97 35.39-6.24L35.39-6.24Q35.39-5.59 35.17-5.12Q34.96-4.64 34.45-4.24Q33.94-3.83 33.05-3.36L33.05-3.36Q32.28-2.95 31.76-2.53Q31.24-2.11 30.97-1.72Q30.70-1.33 30.67-1.01L30.67-1.01L35.40-1.01L35.40 0ZM39.60 0.19L39.60 0.19Q38.68 0.19 38.00-0.35Q37.32-0.89 36.96-1.88Q36.60-2.88 36.60-4.25L36.60-4.25Q36.60-5.63 36.96-6.62Q37.32-7.62 38.00-8.17Q38.68-8.71 39.60-8.71L39.60-8.71Q40.54-8.71 41.21-8.17Q41.88-7.62 42.24-6.62Q42.60-5.63 42.60-4.25L42.60-4.25Q42.60-2.88 42.24-1.88Q41.88-0.89 41.21-0.35Q40.54 0.19 39.60 0.19ZM39.60-0.82L39.60-0.82Q40.20-0.82 40.63-1.24Q41.05-1.66 41.29-2.43Q41.52-3.20 41.52-4.25L41.52-4.25Q41.52-5.32 41.29-6.10L41.29-6.10Q41.26-6.20 41.22-6.30L41.22-6.30L38.48-1.33Q38.53-1.28 38.58-1.24L38.58-1.24Q39.01-0.82 39.60-0.82ZM37.98-2.22L40.72-7.19Q40.67-7.24 40.63-7.28L40.63-7.28Q40.20-7.70 39.60-7.70L39.60-7.70Q39.01-7.70 38.58-7.28Q38.15-6.86 37.91-6.09Q37.68-5.32 37.68-4.25L37.68-4.25Q37.68-3.20 37.92-2.44L37.92-2.44Q37.94-2.32 37.98-2.22L37.98-2.22ZM49.80 0L43.80 0Q43.80-0.90 44.08-1.63Q44.36-2.35 45.08-3.01Q45.79-3.67 47.06-4.34L47.06-4.34Q47.65-4.66 48.01-4.92Q48.37-5.18 48.54-5.48Q48.71-5.78 48.71-6.22L48.71-6.22Q48.71-6.66 48.52-6.99Q48.32-7.32 47.95-7.51Q47.57-7.70 47.00-7.70L47.00-7.70Q46.10-7.70 45.58-7.24Q45.06-6.77 44.93-5.90L44.93-5.90L43.85-5.98Q43.99-7.22 44.81-7.97Q45.62-8.71 47.00-8.71L47.00-8.71Q47.88-8.71 48.50-8.40Q49.13-8.09 49.46-7.53Q49.79-6.97 49.79-6.24L49.79-6.24Q49.79-5.59 49.57-5.12Q49.36-4.64 48.85-4.24Q48.34-3.83 47.45-3.36L47.45-3.36Q46.68-2.95 46.16-2.53Q45.64-2.11 45.37-1.72Q45.10-1.33 45.07-1.01L45.07-1.01L49.80-1.01L49.80 0ZM54.02 0.19L54.02 0.19Q53.06 0.19 52.39-0.25Q51.71-0.68 51.35-1.54Q51.00-2.39 51.00-3.60L51.00-3.60Q51.00-4.66 51.17-5.58Q51.35-6.50 51.74-7.21Q52.13-7.91 52.77-8.31Q53.41-8.71 54.36-8.71L54.36-8.71Q55.12-8.71 55.64-8.46Q56.17-8.21 56.50-7.75Q56.83-7.30 57.00-6.70L57.00-6.70L55.92-6.60Q55.78-7.10 55.42-7.40Q55.07-7.70 54.36-7.70Q53.65-7.70 53.15-7.30Q52.64-6.90 52.37-6.10L52.37-6.10Q52.15-5.48 52.08-4.64L52.08-4.64Q52.18-4.79 52.31-4.93L52.31-4.93Q52.63-5.29 53.12-5.51Q53.60-5.74 54.22-5.74L54.22-5.74Q55.06-5.74 55.68-5.38Q56.30-5.02 56.65-4.36Q57.00-3.71 57.00-2.83L57.00-2.83Q57.00-1.90 56.62-1.22Q56.24-0.54 55.58-0.17Q54.91 0.19 54.02 0.19ZM54.05-0.82L54.05-0.82Q54.89-0.82 55.40-1.35Q55.92-1.88 55.92-2.83L55.92-2.83Q55.92-3.72 55.43-4.24Q54.95-4.75 54.14-4.75L54.14-4.75Q53.57-4.75 53.11-4.52Q52.66-4.28 52.39-3.85Q52.13-3.42 52.13-2.83Q52.13-2.24 52.36-1.79Q52.60-1.33 53.03-1.07Q53.46-0.82 54.05-0.82Z" fill="#5E6570"/><path transform="translate(26 114)" d="M1.33-10.29L1.33 0L2.61 0L2.61-7.73L5.51 0L7.22 0L10.12-7.73L10.12 0L11.40 0L11.40-10.29L9.63-10.29L6.37-1.39L3.10-10.29ZM13.12-3.84C13.12-1.39 14.51 0.17 16.65 0.17C18.13 0.17 19.43-0.73 19.88-2.18L18.55-2.28C18.20-1.48 17.46-1.02 16.65-1.02C15.34-1.02 14.56-1.91 14.44-3.45L20.00-3.45L19.98-4.02C19.85-6.77 18.33-7.86 16.65-7.86C14.51-7.86 13.12-6.29 13.12-3.84ZM14.47-4.55C14.67-5.89 15.44-6.67 16.65-6.67C17.56-6.67 18.41-6.15 18.63-4.55ZM21.76-7.69L21.76 0L23.01 0L23.01-4.60C23.01-5.95 23.71-6.76 24.88-6.76C25.80-6.76 26.35-5.95 26.35-4.60L26.35 0L27.59 0L27.59-4.60C27.59-5.97 28.27-6.76 29.46-6.76C30.39-6.76 30.93-5.97 30.93-4.60L30.93 0L32.18 0L32.18-4.94C32.18-6.80 31.28-7.86 29.72-7.86C28.52-7.86 27.72-7.29 27.39-6.26C27.06-7.28 26.26-7.86 25.14-7.86C24.08-7.86 23.30-7.34 22.94-6.41L22.90-7.69ZM37.32 0.17C39.45 0.17 40.85-1.39 40.85-3.84C40.85-6.29 39.45-7.86 37.32-7.86C35.19-7.86 33.80-6.29 33.80-3.84C33.80-1.39 35.19 0.17 37.32 0.17ZM35.10-3.84C35.10-5.61 35.92-6.67 37.32-6.67C38.73-6.67 39.54-5.61 39.54-3.84C39.54-2.07 38.73-1.02 37.32-1.02C35.92-1.02 35.10-2.07 35.10-3.84ZM42.62-7.69L42.62 0L43.86 0L43.86-4.58C43.86-5.90 44.40-6.58 45.57-6.58L46.33-6.58L46.33-7.69L45.57-7.69C44.57-7.69 44.01-7.25 43.76-6.31L43.72-7.69ZM47.33-7.69L50.13-0.15L50.55-0.15L50.27 0.57C50.13 0.93 49.91 1.07 49.55 1.07L48.66 1.07L48.66 2.18L49.68 2.18C50.55 2.18 51.10 1.80 51.39 0.97L54.49-7.69L53.17-7.69L50.95-1.33L48.66-7.69ZM55.49-4.81L55.49-3.65L60.31-3.65L60.31-4.81ZM61.80-5.42L63.12-5.32C63.35-6.19 63.99-6.67 64.95-6.67C66.18-6.67 66.79-6.05 66.80-4.77L64.57-4.34C62.86-4.00 61.67-3.61 61.67-2.02C61.67-0.64 62.92 0.17 64.44 0.17C65.66 0.17 66.50-0.48 66.82-1.17C66.82-0.25 67.51 0 68.30 0L68.83 0L68.83-1.10L68.51-1.10C68.19-1.10 68.05-1.25 68.05-1.57L68.05-4.64C68.05-6.70 66.93-7.86 64.95-7.86C63.31-7.86 62.10-6.92 61.80-5.42ZM62.97-2.02C62.97-3.09 63.90-3.15 65.03-3.35L66.83-3.67L66.83-3.60C66.83-1.80 65.84-0.93 64.60-0.93C63.48-0.93 62.97-1.42 62.97-2.02ZM76.39 0L76.39-7.69L75.14-7.69L75.14-3.10C75.14-1.68 74.34-0.93 73.17-0.93C72.06-0.93 71.60-1.68 71.60-3.10L71.60-7.69L70.35-7.69L70.35-2.74C70.35-1.12 71.20 0.17 72.91 0.17C73.91 0.17 74.79-0.28 75.20-1.26L75.20 0ZM81.62-0.41C82.59-0.41 83.43-0.91 83.81-1.73L83.81-0.46C83.81 0.59 83.00 1.16 81.65 1.16C80.71 1.16 80.05 0.74 79.74 0.03L78.43 0.12C78.79 1.46 80.01 2.35 81.65 2.35C83.67 2.35 85.06 1.28 85.06-0.75L85.06-7.69L83.87-7.69L83.87-6.50C83.52-7.34 82.65-7.86 81.61-7.86C79.62-7.86 78.23-6.32 78.23-4.13C78.23-1.94 79.63-0.41 81.62-0.41ZM79.53-4.13C79.53-5.70 80.36-6.67 81.69-6.67C83.03-6.67 83.85-5.70 83.82-4.13C83.81-2.57 82.98-1.59 81.69-1.59C80.36-1.59 79.53-2.57 79.53-4.13ZM87.38-7.69L87.38 0L88.62 0L88.62-4.60C88.62-5.95 89.32-6.76 90.49-6.76C91.41-6.76 91.96-5.95 91.96-4.60L91.96 0L93.21 0L93.21-4.60C93.21-5.97 93.89-6.76 95.08-6.76C96.00-6.76 96.54-5.97 96.54-4.60L96.54 0L97.79 0L97.79-4.94C97.79-6.80 96.89-7.86 95.34-7.86C94.13-7.86 93.34-7.29 93.00-6.26C92.67-7.28 91.87-7.86 90.76-7.86C89.70-7.86 88.91-7.34 88.55-6.41L88.51-7.69ZM99.41-3.84C99.41-1.39 100.80 0.17 102.94 0.17C104.41 0.17 105.72-0.73 106.17-2.18L104.84-2.28C104.49-1.48 103.75-1.02 102.94-1.02C101.63-1.02 100.85-1.91 100.73-3.45L106.29-3.45L106.27-4.02C106.14-6.77 104.62-7.86 102.94-7.86C100.80-7.86 99.41-6.29 99.41-3.84ZM100.76-4.55C100.96-5.89 101.73-6.67 102.94-6.67C103.85-6.67 104.70-6.15 104.92-4.55ZM108.05-7.69L108.05 0L109.30 0L109.30-4.60C109.30-6.00 110.10-6.76 111.32-6.76C112.46-6.76 112.93-6.00 112.93-4.60L112.93 0L114.17 0L114.17-4.94C114.17-6.57 113.33-7.86 111.58-7.86C110.52-7.86 109.62-7.40 109.23-6.37L109.19-7.69ZM116.88-9.43L116.88-7.69L115.77-7.69L115.77-6.58L116.88-6.58L116.88-2.06C116.88-0.74 117.65 0 119.05 0L120.16 0L120.16-1.10L119.05-1.10C118.44-1.10 118.13-1.42 118.13-2.06L118.13-6.58L120.19-6.58L120.19-7.69L118.13-7.69L118.13-9.43ZM121.19-3.84C121.19-1.39 122.58 0.17 124.71 0.17C126.19 0.17 127.50-0.73 127.95-2.18L126.61-2.28C126.27-1.48 125.53-1.02 124.71-1.02C123.41-1.02 122.63-1.91 122.51-3.45L128.06-3.45L128.05-4.02C127.92-6.77 126.40-7.86 124.71-7.86C122.58-7.86 121.19-6.29 121.19-3.84ZM122.54-4.55C122.74-5.89 123.51-6.67 124.71-6.67C125.63-6.67 126.48-6.15 126.70-4.55ZM136.27-10.29L135.02-10.29L135.02-6.70C134.60-7.41 133.70-7.86 132.67-7.86C130.67-7.86 129.43-6.31 129.43-3.84C129.43-1.38 130.67 0.17 132.67 0.17C133.75 0.17 134.68-0.30 135.10-1.07L135.14 0L136.27 0ZM130.73-3.84C130.73-5.61 131.59-6.73 132.94-6.73C134.28-6.73 135.14-5.61 135.14-3.84C135.14-2.10 134.28-1.02 132.94-1.02C131.59-1.02 130.73-2.10 130.73-3.84ZM145.58-10.29L142.39-10.29L142.39 0L145.67 0C148.80 0 150.54-1.84 150.54-5.13C150.54-8.44 148.76-10.29 145.58-10.29ZM143.67-1.25L143.67-9.05L145.58-9.05C148.00-9.05 149.20-7.76 149.20-5.13C149.20-2.54 148.00-1.25 145.58-1.25ZM152.05-7.69L152.05 0L153.29 0L153.29-7.69ZM152.02-8.89L153.32-8.89L153.32-10.29L152.02-10.29ZM160.02-5.31L161.33-5.39C161.08-6.89 159.82-7.86 158.28-7.86C156.51-7.86 155.32-6.93 155.32-5.45C155.32-3.94 156.83-3.55 158.22-3.23C159.09-3.03 160.17-2.94 160.17-2.03C160.17-1.25 159.20-1.02 158.47-1.02C157.32-1.02 156.60-1.59 156.44-2.51L155.14-2.42C155.25-0.83 156.64 0.17 158.47 0.17C159.92 0.17 161.47-0.46 161.47-1.96C161.47-3.49 160.18-3.97 158.44-4.31C157.63-4.47 156.63-4.77 156.63-5.52C156.63-6.25 157.31-6.67 158.15-6.67C158.99-6.67 159.85-6.16 160.02-5.31ZM168.26-5.10L169.56-5.19C169.36-6.84 167.92-7.86 166.36-7.86C164.23-7.86 162.83-6.29 162.83-3.84C162.83-1.39 164.23 0.17 166.36 0.17C167.98 0.17 169.39-0.90 169.64-2.64L168.32-2.73C168.14-1.64 167.32-1.02 166.36-1.02C164.95-1.02 164.14-2.07 164.14-3.84C164.14-5.61 164.95-6.67 166.36-6.67C167.27-6.67 168.10-6.09 168.26-5.10ZM174.38 0.17C176.51 0.17 177.90-1.39 177.90-3.84C177.90-6.29 176.51-7.86 174.38-7.86C172.25-7.86 170.85-6.29 170.85-3.84C170.85-1.39 172.25 0.17 174.38 0.17ZM172.16-3.84C172.16-5.61 172.97-6.67 174.38-6.67C175.78-6.67 176.60-5.61 176.60-3.84C176.60-2.07 175.78-1.02 174.38-1.02C172.97-1.02 172.16-2.07 172.16-3.84ZM179.67-7.69L179.67 0L180.92 0L180.92-4.58C180.92-5.90 181.45-6.58 182.63-6.58L183.38-6.58L183.38-7.69L182.63-7.69C181.63-7.69 181.06-7.25 180.81-6.31L180.77-7.69ZM191.01-10.29L189.76-10.29L189.76-6.70C189.34-7.41 188.44-7.86 187.41-7.86C185.41-7.86 184.16-6.31 184.16-3.84C184.16-1.38 185.41 0.17 187.41 0.17C188.49 0.17 189.41-0.30 189.83-1.07L189.88 0L191.01 0ZM185.47-3.84C185.47-5.61 186.32-6.73 187.67-6.73C189.02-6.73 189.88-5.61 189.88-3.84C189.88-2.10 189.02-1.02 187.67-1.02C186.32-1.02 185.47-2.10 185.47-3.84ZM201.90-5.10L203.20-5.19C203.00-6.84 201.56-7.86 200.00-7.86C197.87-7.86 196.47-6.29 196.47-3.84C196.47-1.39 197.87 0.17 200.00 0.17C201.62 0.17 203.03-0.90 203.28-2.64L201.96-2.73C201.78-1.64 200.96-1.02 200.00-1.02C198.59-1.02 197.78-2.07 197.78-3.84C197.78-5.61 198.59-6.67 200.00-6.67C200.91-6.67 201.74-6.09 201.90-5.10ZM208.02 0.17C210.15 0.17 211.54-1.39 211.54-3.84C211.54-6.29 210.15-7.86 208.02-7.86C205.89-7.86 204.49-6.29 204.49-3.84C204.49-1.39 205.89 0.17 208.02 0.17ZM205.80-3.84C205.80-5.61 206.61-6.67 208.02-6.67C209.42-6.67 210.24-5.61 210.24-3.84C210.24-2.07 209.42-1.02 208.02-1.02C206.61-1.02 205.80-2.07 205.80-3.84ZM213.31-7.69L213.31 0L214.56 0L214.56-4.60C214.56-5.95 215.25-6.76 216.43-6.76C217.34-6.76 217.89-5.95 217.89-4.60L217.89 0L219.14 0L219.14-4.60C219.14-5.97 219.82-6.76 221.01-6.76C221.94-6.76 222.47-5.97 222.47-4.60L222.47 0L223.72 0L223.72-4.94C223.72-6.80 222.82-7.86 221.27-7.86C220.07-7.86 219.27-7.29 218.94-6.26C218.60-7.28 217.80-7.86 216.69-7.86C215.63-7.86 214.85-7.34 214.48-6.41L214.44-7.69ZM225.75-7.69L225.75 0L227.00 0L227.00-4.60C227.00-5.95 227.69-6.76 228.87-6.76C229.78-6.76 230.33-5.95 230.33-4.60L230.33 0L231.58 0L231.58-4.60C231.58-5.97 232.26-6.76 233.45-6.76C234.38-6.76 234.91-5.97 234.91-4.60L234.91 0L236.16 0L236.16-4.94C236.16-6.80 235.26-7.86 233.71-7.86C232.51-7.86 231.71-7.29 231.38-6.26C231.04-7.28 230.25-7.86 229.13-7.86C228.07-7.86 227.29-7.34 226.92-6.41L226.88-7.69ZM244.30 0L244.30-7.69L243.05-7.69L243.05-3.10C243.05-1.68 242.25-0.93 241.08-0.93C239.97-0.93 239.51-1.68 239.51-3.10L239.51-7.69L238.26-7.69L238.26-2.74C238.26-1.12 239.10 0.17 240.82 0.17C241.82 0.17 242.70-0.28 243.11-1.26L243.11 0ZM246.62-7.69L246.62 0L247.86 0L247.86-4.60C247.86-6.00 248.66-6.76 249.88-6.76C251.02-6.76 251.49-6.00 251.49-4.60L251.49 0L252.73 0L252.73-4.94C252.73-6.57 251.89-7.86 250.14-7.86C249.08-7.86 248.18-7.40 247.79-6.37L247.75-7.69ZM255.05-7.69L255.05 0L256.30 0L256.30-7.69ZM255.03-8.89L256.33-8.89L256.33-10.29L255.03-10.29ZM258.80-9.43L258.80-7.69L257.68-7.69L257.68-6.58L258.80-6.58L258.80-2.06C258.80-0.74 259.56 0 260.96 0L262.07 0L262.07-1.10L260.96-1.10C260.35-1.10 260.04-1.42 260.04-2.06L260.04-6.58L262.10-6.58L262.10-7.69L260.04-7.69L260.04-9.43ZM262.96-7.69L265.76-0.15L266.18-0.15L265.90 0.57C265.76 0.93 265.54 1.07 265.18 1.07L264.29 1.07L264.29 2.18L265.31 2.18C266.18 2.18 266.73 1.80 267.02 0.97L270.12-7.69L268.80-7.69L266.58-1.33L264.29-7.69ZM275.22-7.69L275.22 0L276.47 0L276.47-4.60C276.47-5.95 277.17-6.76 278.34-6.76C279.26-6.76 279.81-5.95 279.81-4.60L279.81 0L281.05 0L281.05-4.60C281.05-5.97 281.73-6.76 282.92-6.76C283.85-6.76 284.39-5.97 284.39-4.60L284.39 0L285.64 0L285.64-4.94C285.64-6.80 284.74-7.86 283.18-7.86C281.98-7.86 281.18-7.29 280.85-6.26C280.52-7.28 279.72-7.86 278.60-7.86C277.54-7.86 276.76-7.34 276.40-6.41L276.36-7.69ZM287.61-5.42L288.93-5.32C289.16-6.19 289.80-6.67 290.75-6.67C291.99-6.67 292.60-6.05 292.61-4.77L290.38-4.34C288.67-4.00 287.48-3.61 287.48-2.02C287.48-0.64 288.72 0.17 290.25 0.17C291.46 0.17 292.31-0.48 292.62-1.17C292.62-0.25 293.32 0 294.10 0L294.64 0L294.64-1.10L294.32-1.10C294.00-1.10 293.86-1.25 293.86-1.57L293.86-4.64C293.86-6.70 292.74-7.86 290.75-7.86C289.12-7.86 287.91-6.92 287.61-5.42ZM288.78-2.02C288.78-3.09 289.71-3.15 290.84-3.35L292.64-3.67L292.64-3.60C292.64-1.80 291.65-0.93 290.41-0.93C289.29-0.93 288.78-1.42 288.78-2.02ZM296.19-7.69L296.19 0L297.44 0L297.44-4.60C297.44-6.00 298.24-6.76 299.45-6.76C300.60-6.76 301.06-6.00 301.06-4.60L301.06 0L302.31 0L302.31-4.94C302.31-6.57 301.47-7.86 299.71-7.86C298.66-7.86 297.76-7.40 297.37-6.37L297.32-7.69ZM304.28-5.42L305.60-5.32C305.83-6.19 306.47-6.67 307.43-6.67C308.66-6.67 309.27-6.05 309.28-4.77L307.05-4.34C305.34-4.00 304.15-3.61 304.15-2.02C304.15-0.64 305.40 0.17 306.92 0.17C308.14 0.17 308.98-0.48 309.30-1.17C309.30-0.25 310.00 0 310.78 0L311.31 0L311.31-1.10L311.00-1.10C310.68-1.10 310.53-1.25 310.53-1.57L310.53-4.64C310.53-6.70 309.42-7.86 307.43-7.86C305.79-7.86 304.59-6.92 304.28-5.42ZM305.46-2.02C305.46-3.09 306.38-3.15 307.52-3.35L309.31-3.67L309.31-3.60C309.31-1.80 308.33-0.93 307.08-0.93C305.96-0.93 305.46-1.42 305.46-2.02ZM315.75-0.41C316.72-0.41 317.56-0.91 317.94-1.73L317.94-0.46C317.94 0.59 317.13 1.16 315.78 1.16C314.84 1.16 314.19 0.74 313.87 0.03L312.56 0.12C312.92 1.46 314.14 2.35 315.78 2.35C317.80 2.35 319.19 1.28 319.19-0.75L319.19-7.69L318.00-7.69L318.00-6.50C317.65-7.34 316.78-7.86 315.74-7.86C313.75-7.86 312.36-6.32 312.36-4.13C312.36-1.94 313.77-0.41 315.75-0.41ZM313.66-4.13C313.66-5.70 314.49-6.67 315.82-6.67C317.16-6.67 317.98-5.70 317.96-4.13C317.94-2.57 317.11-1.59 315.82-1.59C314.49-1.59 313.66-2.57 313.66-4.13ZM321.03-3.84C321.03-1.39 322.42 0.17 324.55 0.17C326.03 0.17 327.34-0.73 327.79-2.18L326.45-2.28C326.10-1.48 325.37-1.02 324.55-1.02C323.25-1.02 322.47-1.91 322.35-3.45L327.90-3.45L327.89-4.02C327.76-6.77 326.24-7.86 324.55-7.86C322.42-7.86 321.03-6.29 321.03-3.84ZM322.38-4.55C322.58-5.89 323.35-6.67 324.55-6.67C325.47-6.67 326.32-6.15 326.54-4.55ZM329.67-7.69L329.67 0L330.92 0L330.92-4.58C330.92-5.90 331.46-6.58 332.63-6.58L333.38-6.58L333.38-7.69L332.63-7.69C331.63-7.69 331.06-7.25 330.82-6.31L330.77-7.69Z" fill="#9AA1AB"/><path transform="translate(26 136)" d="M1.91-9.43L1.91-7.69L0.80-7.69L0.80-6.58L1.91-6.58L1.91-2.06C1.91-0.74 2.68 0 4.07 0L5.19 0L5.19-1.10L4.07-1.10C3.47-1.10 3.16-1.42 3.16-2.06L3.16-6.58L5.22-6.58L5.22-7.69L3.16-7.69L3.16-9.43ZM6.92-10.29L6.92 0L8.16 0L8.16-4.51C8.16-5.92 8.96-6.67 10.18-6.67C11.32-6.67 11.79-5.92 11.79-4.51L11.79 0L13.04 0L13.04-4.94C13.04-6.57 12.19-7.86 10.44-7.86C9.51-7.86 8.61-7.48 8.16-6.67L8.16-10.29ZM15.01-5.42L16.33-5.32C16.56-6.19 17.20-6.67 18.15-6.67C19.39-6.67 20.00-6.05 20.01-4.77L17.78-4.34C16.07-4.00 14.88-3.61 14.88-2.02C14.88-0.64 16.12 0.17 17.65 0.17C18.86 0.17 19.71-0.48 20.02-1.17C20.02-0.25 20.72 0 21.50 0L22.04 0L22.04-1.10L21.72-1.10C21.40-1.10 21.26-1.25 21.26-1.57L21.26-4.64C21.26-6.70 20.14-7.86 18.15-7.86C16.52-7.86 15.31-6.92 15.01-5.42ZM16.18-2.02C16.18-3.09 17.11-3.15 18.24-3.35L20.04-3.67L20.04-3.60C20.04-1.80 19.05-0.93 17.81-0.93C16.69-0.93 16.18-1.42 16.18-2.02ZM23.74-9.43L23.74-7.69L22.62-7.69L22.62-6.58L23.74-6.58L23.74-2.06C23.74-0.74 24.50 0 25.90 0L27.01 0L27.01-1.10L25.90-1.10C25.29-1.10 24.98-1.42 24.98-2.06L24.98-6.58L27.04-6.58L27.04-7.69L24.98-7.69L24.98-9.43ZM32.36-10.29L32.36 0L33.49 0L33.54-1.07C33.96-0.30 34.89 0.17 35.96 0.17C37.96 0.17 39.21-1.38 39.21-3.84C39.21-6.31 37.96-7.86 35.96-7.86C34.93-7.86 34.03-7.41 33.61-6.70L33.61-10.29ZM33.49-3.84C33.49-5.61 34.35-6.73 35.70-6.73C37.05-6.73 37.90-5.61 37.90-3.84C37.90-2.10 37.05-1.02 35.70-1.02C34.35-1.02 33.49-2.10 33.49-3.84ZM46.94 0L46.94-7.69L45.69-7.69L45.69-3.10C45.69-1.68 44.89-0.93 43.72-0.93C42.62-0.93 42.15-1.68 42.15-3.10L42.15-7.69L40.90-7.69L40.90-2.74C40.90-1.12 41.75 0.17 43.46 0.17C44.46 0.17 45.34-0.28 45.75-1.26L45.75 0ZM49.04-7.69L49.04 0L50.29 0L50.29-7.69ZM49.01-8.89L50.31-8.89L50.31-10.29L49.01-10.29ZM52.61-10.29L52.61-1.51C52.61-0.61 53.21 0 54.11 0L54.98 0L54.98-1.10L54.32-1.10C54.00-1.10 53.85-1.25 53.85-1.57L53.85-10.29ZM62.94-10.29L61.70-10.29L61.70-6.70C61.28-7.41 60.38-7.86 59.35-7.86C57.35-7.86 56.10-6.31 56.10-3.84C56.10-1.38 57.35 0.17 59.35 0.17C60.42 0.17 61.35-0.30 61.77-1.07L61.81 0L62.94 0ZM57.41-3.84C57.41-5.61 58.26-6.73 59.61-6.73C60.96-6.73 61.81-5.61 61.81-3.84C61.81-2.10 60.96-1.02 59.61-1.02C58.26-1.02 57.41-2.10 57.41-3.84ZM69.67-5.31L70.98-5.39C70.73-6.89 69.47-7.86 67.93-7.86C66.16-7.86 64.97-6.93 64.97-5.45C64.97-3.94 66.48-3.55 67.87-3.23C68.74-3.03 69.82-2.94 69.82-2.03C69.82-1.25 68.85-1.02 68.12-1.02C66.98-1.02 66.25-1.59 66.09-2.51L64.79-2.42C64.90-0.83 66.29 0.17 68.12 0.17C69.57 0.17 71.12-0.46 71.12-1.96C71.12-3.49 69.83-3.97 68.09-4.31C67.28-4.47 66.28-4.77 66.28-5.52C66.28-6.25 66.96-6.67 67.80-6.67C68.64-6.67 69.50-6.16 69.67-5.31ZM76.24-5.42L77.56-5.32C77.79-6.19 78.43-6.67 79.39-6.67C80.62-6.67 81.23-6.05 81.24-4.77L79.01-4.34C77.30-4.00 76.11-3.61 76.11-2.02C76.11-0.64 77.36 0.17 78.88 0.17C80.10 0.17 80.94-0.48 81.26-1.17C81.26-0.25 81.95 0 82.74 0L83.27 0L83.27-1.10L82.95-1.10C82.64-1.10 82.49-1.25 82.49-1.57L82.49-4.64C82.49-6.70 81.37-7.86 79.39-7.86C77.75-7.86 76.55-6.92 76.24-5.42ZM77.42-2.02C77.42-3.09 78.34-3.15 79.47-3.35L81.27-3.67L81.27-3.60C81.27-1.80 80.29-0.93 79.04-0.93C77.92-0.93 77.42-1.42 77.42-2.02ZM92.97-5.31L94.28-5.39C94.03-6.89 92.77-7.86 91.23-7.86C89.46-7.86 88.28-6.93 88.28-5.45C88.28-3.94 89.78-3.55 91.18-3.23C92.05-3.03 93.12-2.94 93.12-2.03C93.12-1.25 92.15-1.02 91.42-1.02C90.28-1.02 89.55-1.59 89.39-2.51L88.09-2.42C88.20-0.83 89.60 0.17 91.42 0.17C92.87 0.17 94.42-0.46 94.42-1.96C94.42-3.49 93.13-3.97 91.39-4.31C90.58-4.47 89.58-4.77 89.58-5.52C89.58-6.25 90.26-6.67 91.10-6.67C91.94-6.67 92.80-6.16 92.97-5.31ZM95.79-3.84C95.79-1.39 97.18 0.17 99.31 0.17C100.79 0.17 102.09-0.73 102.54-2.18L101.21-2.28C100.86-1.48 100.12-1.02 99.31-1.02C98.01-1.02 97.22-1.91 97.11-3.45L102.66-3.45L102.65-4.02C102.51-6.77 100.99-7.86 99.31-7.86C97.18-7.86 95.79-6.29 95.79-3.84ZM97.14-4.55C97.34-5.89 98.11-6.67 99.31-6.67C100.22-6.67 101.08-6.15 101.30-4.55ZM104.50-10.29L104.50-1.51C104.50-0.61 105.11 0 106.01 0L106.88 0L106.88-1.10L106.21-1.10C105.89-1.10 105.75-1.25 105.75-1.57L105.75-10.29ZM109.36-8.16L109.36-7.69L108.33-7.69L108.33-6.58L109.36-6.58L109.36 0L110.61 0L110.61-6.58L112.53-6.58L112.53-7.69L110.61-7.69L110.61-8.16C110.61-8.80 110.95-9.19 111.45-9.19L112.64-9.19L112.64-10.29L111.45-10.29C110.01-10.29 109.36-9.45 109.36-8.16ZM113.93-4.81L113.93-3.65L118.74-3.65L118.74-4.81ZM120.58-7.69L120.58 0L121.83 0L121.83-4.60C121.83-5.95 122.52-6.76 123.70-6.76C124.61-6.76 125.16-5.95 125.16-4.60L125.16 0L126.41 0L126.41-4.60C126.41-5.97 127.09-6.76 128.28-6.76C129.21-6.76 129.75-5.97 129.75-4.60L129.75 0L130.99 0L130.99-4.94C130.99-6.80 130.09-7.86 128.54-7.86C127.34-7.86 126.54-7.29 126.21-6.26C125.87-7.28 125.08-7.86 123.96-7.86C122.90-7.86 122.12-7.34 121.76-6.41L121.71-7.69ZM132.97-5.42L134.28-5.32C134.52-6.19 135.15-6.67 136.11-6.67C137.34-6.67 137.95-6.05 137.97-4.77L135.73-4.34C134.02-4.00 132.83-3.61 132.83-2.02C132.83-0.64 134.08 0.17 135.60 0.17C136.82 0.17 137.66-0.48 137.98-1.17C137.98-0.25 138.68 0 139.46 0L140.00 0L140.00-1.10L139.68-1.10C139.36-1.10 139.21-1.25 139.21-1.57L139.21-4.64C139.21-6.70 138.10-7.86 136.11-7.86C134.47-7.86 133.27-6.92 132.97-5.42ZM134.14-2.02C134.14-3.09 135.07-3.15 136.20-3.35L138.00-3.67L138.00-3.60C138.00-1.80 137.01-0.93 135.76-0.93C134.65-0.93 134.14-1.42 134.14-2.02ZM141.66-7.69L141.66 0L142.91 0L142.91-7.69ZM141.64-8.89L142.94-8.89L142.94-10.29L141.64-10.29ZM145.01-7.69L145.01 0L146.26 0L146.26-4.60C146.26-6.00 147.06-6.76 148.28-6.76C149.42-6.76 149.89-6.00 149.89-4.60L149.89 0L151.13 0L151.13-4.94C151.13-6.57 150.29-7.86 148.54-7.86C147.48-7.86 146.58-7.40 146.19-6.37L146.15-7.69ZM153.84-9.43L153.84-7.69L152.73-7.69L152.73-6.58L153.84-6.58L153.84-2.06C153.84-0.74 154.61 0 156.01 0L157.12 0L157.12-1.10L156.01-1.10C155.40-1.10 155.09-1.42 155.09-2.06L155.09-6.58L157.15-6.58L157.15-7.69L155.09-7.69L155.09-9.43ZM158.50-5.42L159.82-5.32C160.05-6.19 160.69-6.67 161.65-6.67C162.88-6.67 163.49-6.05 163.50-4.77L161.27-4.34C159.56-4.00 158.37-3.61 158.37-2.02C158.37-0.64 159.62 0.17 161.14 0.17C162.36 0.17 163.20-0.48 163.52-1.17C163.52-0.25 164.21 0 165.00 0L165.53 0L165.53-1.10L165.21-1.10C164.89-1.10 164.75-1.25 164.75-1.57L164.75-4.64C164.75-6.70 163.63-7.86 161.65-7.86C160.01-7.86 158.80-6.92 158.50-5.42ZM159.67-2.02C159.67-3.09 160.60-3.15 161.73-3.35L163.53-3.67L163.53-3.60C163.53-1.80 162.54-0.93 161.30-0.93C160.18-0.93 159.67-1.42 159.67-2.02ZM167.20-7.69L167.20 0L168.45 0L168.45-7.69ZM167.17-8.89L168.48-8.89L168.48-10.29L167.17-10.29ZM170.55-7.69L170.55 0L171.80 0L171.80-4.60C171.80-6.00 172.59-6.76 173.81-6.76C174.96-6.76 175.42-6.00 175.42-4.60L175.42 0L176.67 0L176.67-4.94C176.67-6.57 175.83-7.86 174.07-7.86C173.01-7.86 172.11-7.40 171.72-6.37L171.68-7.69ZM178.99-7.69L178.99 0L180.23 0L180.23-7.69ZM178.96-8.89L180.26-8.89L180.26-10.29L178.96-10.29ZM182.34-7.69L182.34 0L183.58 0L183.58-4.60C183.58-6.00 184.38-6.76 185.60-6.76C186.75-6.76 187.21-6.00 187.21-4.60L187.21 0L188.46 0L188.46-4.94C188.46-6.57 187.62-7.86 185.86-7.86C184.80-7.86 183.90-7.40 183.51-6.37L183.47-7.69ZM193.47-0.41C194.44-0.41 195.29-0.91 195.66-1.73L195.66-0.46C195.66 0.59 194.85 1.16 193.50 1.16C192.56 1.16 191.91 0.74 191.59 0.03L190.28 0.12C190.65 1.46 191.86 2.35 193.50 2.35C195.52 2.35 196.91 1.28 196.91-0.75L196.91-7.69L195.72-7.69L195.72-6.50C195.37-7.34 194.50-7.86 193.46-7.86C191.47-7.86 190.08-6.32 190.08-4.13C190.08-1.94 191.49-0.41 193.47-0.41ZM191.39-4.13C191.39-5.70 192.21-6.67 193.55-6.67C194.88-6.67 195.71-5.70 195.68-4.13C195.66-2.57 194.84-1.59 193.55-1.59C192.21-1.59 191.39-2.57 191.39-4.13ZM208.31-7.69L206.97-7.69L205.16-1.38L203.35-7.69L202.01-7.69L204.38 0L205.94 0L207.64-5.80L209.34 0L210.90 0L213.27-7.69L211.93-7.69L210.12-1.38ZM214.74-7.69L214.74 0L215.99 0L215.99-7.69ZM214.72-8.89L216.02-8.89L216.02-10.29L214.72-10.29ZM218.09-10.29L218.09 0L219.34 0L219.34-1.96L220.82-3.57L223.29 0L224.82 0L221.68-4.42L224.68-7.69L222.98-7.69L219.34-3.58L219.34-10.29ZM226.66-7.69L226.66 0L227.91 0L227.91-7.69ZM226.63-8.89L227.94-8.89L227.94-10.29L226.63-10.29ZM234.60-8.16L234.60-7.69L233.57-7.69L233.57-6.58L234.60-6.58L234.60 0L235.84 0L235.84-6.58L237.77-6.58L237.77-7.69L235.84-7.69L235.84-8.16C235.84-8.80 236.19-9.19 236.68-9.19L237.87-9.19L237.87-10.29L236.68-10.29C235.25-10.29 234.60-9.45 234.60-8.16ZM239.64-7.69L239.64 0L240.89 0L240.89-4.58C240.89-5.90 241.43-6.58 242.60-6.58L243.35-6.58L243.35-7.69L242.60-7.69C241.60-7.69 241.03-7.25 240.79-6.31L240.74-7.69ZM247.66 0.17C249.79 0.17 251.18-1.39 251.18-3.84C251.18-6.29 249.79-7.86 247.66-7.86C245.53-7.86 244.14-6.29 244.14-3.84C244.14-1.39 245.53 0.17 247.66 0.17ZM245.44-3.84C245.44-5.61 246.25-6.67 247.66-6.67C249.07-6.67 249.88-5.61 249.88-3.84C249.88-2.07 249.07-1.02 247.66-1.02C246.25-1.02 245.44-2.07 245.44-3.84ZM252.95-7.69L252.95 0L254.20 0L254.20-4.60C254.20-5.95 254.90-6.76 256.07-6.76C256.98-6.76 257.53-5.95 257.53-4.60L257.53 0L258.78 0L258.78-4.60C258.78-5.97 259.46-6.76 260.65-6.76C261.58-6.76 262.12-5.97 262.12-4.60L262.12 0L263.36 0L263.36-4.94C263.36-6.80 262.46-7.86 260.91-7.86C259.71-7.86 258.91-7.29 258.58-6.26C258.25-7.28 257.45-7.86 256.33-7.86C255.27-7.86 254.49-7.34 254.13-6.41L254.08-7.69ZM273.72-5.31L275.02-5.39C274.78-6.89 273.51-7.86 271.98-7.86C270.21-7.86 269.02-6.93 269.02-5.45C269.02-3.94 270.53-3.55 271.92-3.23C272.79-3.03 273.86-2.94 273.86-2.03C273.86-1.25 272.89-1.02 272.17-1.02C271.02-1.02 270.29-1.59 270.13-2.51L268.83-2.42C268.95-0.83 270.34 0.17 272.17 0.17C273.62 0.17 275.17-0.46 275.17-1.96C275.17-3.49 273.88-3.97 272.14-4.31C271.32-4.47 270.32-4.77 270.32-5.52C270.32-6.25 271.00-6.67 271.85-6.67C272.69-6.67 273.54-6.16 273.72-5.31ZM276.53-3.84C276.53-1.39 277.92 0.17 280.05 0.17C281.53 0.17 282.84-0.73 283.29-2.18L281.95-2.28C281.60-1.48 280.87-1.02 280.05-1.02C278.75-1.02 277.97-1.91 277.85-3.45L283.40-3.45L283.39-4.02C283.26-6.77 281.74-7.86 280.05-7.86C277.92-7.86 276.53-6.29 276.53-3.84ZM277.88-4.55C278.08-5.89 278.85-6.67 280.05-6.67C280.97-6.67 281.82-6.15 282.04-4.55ZM285.17-7.69L285.17 0L286.42 0L286.42-4.58C286.42-5.90 286.96-6.58 288.13-6.58L288.88-6.58L288.88-7.69L288.13-7.69C287.13-7.69 286.56-7.25 286.32-6.31L286.27-7.69ZM297.05-7.69L295.71-7.69L293.47-1.31L291.22-7.69L289.88-7.69L292.68 0L294.25 0ZM297.69-3.84C297.69-1.39 299.08 0.17 301.21 0.17C302.69 0.17 303.99-0.73 304.44-2.18L303.11-2.28C302.76-1.48 302.02-1.02 301.21-1.02C299.90-1.02 299.12-1.91 299.00-3.45L304.56-3.45L304.54-4.02C304.41-6.77 302.89-7.86 301.21-7.86C299.08-7.86 297.69-6.29 297.69-3.84ZM299.03-4.55C299.24-5.89 300.00-6.67 301.21-6.67C302.12-6.67 302.98-6.15 303.19-4.55ZM306.33-7.69L306.33 0L307.57 0L307.57-4.58C307.57-5.90 308.11-6.58 309.28-6.58L310.04-6.58L310.04-7.69L309.28-7.69C308.28-7.69 307.72-7.25 307.47-6.31L307.43-7.69Z" fill="#9AA1AB"/><path transform="translate(26 158)" d="M6.10-5.10L7.41-5.19C7.21-6.84 5.77-7.86 4.21-7.86C2.07-7.86 0.68-6.29 0.68-3.84C0.68-1.39 2.07 0.17 4.21 0.17C5.83 0.17 7.24-0.90 7.48-2.64L6.16-2.73C5.99-1.64 5.16-1.02 4.21-1.02C2.80-1.02 1.99-2.07 1.99-3.84C1.99-5.61 2.80-6.67 4.21-6.67C5.12-6.67 5.95-6.09 6.10-5.10ZM12.22 0.17C14.36 0.17 15.75-1.39 15.75-3.84C15.75-6.29 14.36-7.86 12.22-7.86C10.09-7.86 8.70-6.29 8.70-3.84C8.70-1.39 10.09 0.17 12.22 0.17ZM10.01-3.84C10.01-5.61 10.82-6.67 12.22-6.67C13.63-6.67 14.44-5.61 14.44-3.84C14.44-2.07 13.63-1.02 12.22-1.02C10.82-1.02 10.01-2.07 10.01-3.84ZM17.52-7.69L17.52 0L18.76 0L18.76-4.60C18.76-6.00 19.56-6.76 20.78-6.76C21.92-6.76 22.39-6.00 22.39-4.60L22.39 0L23.63 0L23.63-4.94C23.63-6.57 22.79-7.86 21.04-7.86C19.98-7.86 19.08-7.40 18.69-6.37L18.65-7.69ZM31.99-7.69L30.65-7.69L28.41-1.31L26.16-7.69L24.82-7.69L27.62 0L29.19 0ZM32.63-3.84C32.63-1.39 34.02 0.17 36.15 0.17C37.63 0.17 38.93-0.73 39.38-2.18L38.05-2.28C37.70-1.48 36.96-1.02 36.15-1.02C34.84-1.02 34.06-1.91 33.94-3.45L39.50-3.45L39.48-4.02C39.35-6.77 37.83-7.86 36.15-7.86C34.02-7.86 32.63-6.29 32.63-3.84ZM33.97-4.55C34.18-5.89 34.94-6.67 36.15-6.67C37.06-6.67 37.92-6.15 38.13-4.55ZM41.27-7.69L41.27 0L42.51 0L42.51-4.58C42.51-5.90 43.05-6.58 44.23-6.58L44.98-6.58L44.98-7.69L44.23-7.69C43.22-7.69 42.66-7.25 42.41-6.31L42.37-7.69ZM50.65-5.31L51.95-5.39C51.71-6.89 50.45-7.86 48.91-7.86C47.14-7.86 45.95-6.93 45.95-5.45C45.95-3.94 47.46-3.55 48.85-3.23C49.72-3.03 50.79-2.94 50.79-2.03C50.79-1.25 49.82-1.02 49.10-1.02C47.95-1.02 47.23-1.59 47.07-2.51L45.76-2.42C45.88-0.83 47.27 0.17 49.10 0.17C50.55 0.17 52.10-0.46 52.10-1.96C52.10-3.49 50.81-3.97 49.07-4.31C48.26-4.47 47.26-4.77 47.26-5.52C47.26-6.25 47.94-6.67 48.78-6.67C49.62-6.67 50.47-6.16 50.65-5.31ZM53.66-5.42L54.98-5.32C55.22-6.19 55.85-6.67 56.81-6.67C58.04-6.67 58.65-6.05 58.67-4.77L56.43-4.34C54.72-4.00 53.53-3.61 53.53-2.02C53.53-0.64 54.78 0.17 56.30 0.17C57.52 0.17 58.36-0.48 58.68-1.17C58.68-0.25 59.38 0 60.16 0L60.70 0L60.70-1.10L60.38-1.10C60.06-1.10 59.91-1.25 59.91-1.57L59.91-4.64C59.91-6.70 58.80-7.86 56.81-7.86C55.17-7.86 53.97-6.92 53.66-5.42ZM54.84-2.02C54.84-3.09 55.77-3.15 56.90-3.35L58.70-3.67L58.70-3.60C58.70-1.80 57.71-0.93 56.46-0.93C55.35-0.93 54.84-1.42 54.84-2.02ZM62.39-9.43L62.39-7.69L61.28-7.69L61.28-6.58L62.39-6.58L62.39-2.06C62.39-0.74 63.16 0 64.55 0L65.67 0L65.67-1.10L64.55-1.10C63.94-1.10 63.64-1.42 63.64-2.06L63.64-6.58L65.70-6.58L65.70-7.69L63.64-7.69L63.64-9.43ZM67.40-7.69L67.40 0L68.64 0L68.64-7.69ZM67.37-8.89L68.67-8.89L68.67-10.29L67.37-10.29ZM74.01 0.17C76.14 0.17 77.53-1.39 77.53-3.84C77.53-6.29 76.14-7.86 74.01-7.86C71.88-7.86 70.48-6.29 70.48-3.84C70.48-1.39 71.88 0.17 74.01 0.17ZM71.79-3.84C71.79-5.61 72.60-6.67 74.01-6.67C75.41-6.67 76.23-5.61 76.23-3.84C76.23-2.07 75.41-1.02 74.01-1.02C72.60-1.02 71.79-2.07 71.79-3.84ZM79.30-7.69L79.30 0L80.55 0L80.55-4.60C80.55-6.00 81.34-6.76 82.56-6.76C83.71-6.76 84.17-6.00 84.17-4.60L84.17 0L85.42 0L85.42-4.94C85.42-6.57 84.58-7.86 82.82-7.86C81.77-7.86 80.87-7.40 80.47-6.37L80.43-7.69ZM91.93-5.31L93.23-5.39C92.99-6.89 91.73-7.86 90.19-7.86C88.42-7.86 87.23-6.93 87.23-5.45C87.23-3.94 88.74-3.55 90.13-3.23C91.00-3.03 92.07-2.94 92.07-2.03C92.07-1.25 91.10-1.02 90.38-1.02C89.23-1.02 88.51-1.59 88.35-2.51L87.04-2.42C87.16-0.83 88.55 0.17 90.38 0.17C91.83 0.17 93.38-0.46 93.38-1.96C93.38-3.49 92.09-3.97 90.35-4.31C89.54-4.47 88.54-4.77 88.54-5.52C88.54-6.25 89.22-6.67 90.06-6.67C90.90-6.67 91.76-6.16 91.93-5.31ZM98.50-5.42L99.82-5.32C100.05-6.19 100.69-6.67 101.64-6.67C102.88-6.67 103.49-6.05 103.50-4.77L101.27-4.34C99.56-4.00 98.37-3.61 98.37-2.02C98.37-0.64 99.61 0.17 101.14 0.17C102.36 0.17 103.20-0.48 103.52-1.17C103.52-0.25 104.21 0 104.99 0L105.53 0L105.53-1.10L105.21-1.10C104.89-1.10 104.75-1.25 104.75-1.57L104.75-4.64C104.75-6.70 103.63-7.86 101.64-7.86C100.01-7.86 98.80-6.92 98.50-5.42ZM99.67-2.02C99.67-3.09 100.60-3.15 101.73-3.35L103.53-3.67L103.53-3.60C103.53-1.80 102.54-0.93 101.30-0.93C100.18-0.93 99.67-1.42 99.67-2.02ZM107.08-7.69L107.08 0L108.33 0L108.33-4.60C108.33-6.00 109.13-6.76 110.34-6.76C111.49-6.76 111.95-6.00 111.95-4.60L111.95 0L113.20 0L113.20-4.94C113.20-6.57 112.36-7.86 110.61-7.86C109.55-7.86 108.65-7.40 108.26-6.37L108.21-7.69ZM121.67-10.29L120.42-10.29L120.42-6.70C120.00-7.41 119.10-7.86 118.07-7.86C116.07-7.86 114.83-6.31 114.83-3.84C114.83-1.38 116.07 0.17 118.07 0.17C119.15 0.17 120.07-0.30 120.50-1.07L120.54 0L121.67 0ZM116.13-3.84C116.13-5.61 116.99-6.73 118.33-6.73C119.68-6.73 120.54-5.61 120.54-3.84C120.54-2.10 119.68-1.02 118.33-1.02C116.99-1.02 116.13-2.10 116.13-3.84ZM127.61-10.29L127.61 0L128.86 0L128.86-4.51C128.86-5.92 129.66-6.67 130.88-6.67C132.02-6.67 132.49-5.92 132.49-4.51L132.49 0L133.73 0L133.73-4.94C133.73-6.57 132.89-7.86 131.14-7.86C130.21-7.86 129.31-7.48 128.86-6.67L128.86-10.29ZM135.71-5.42L137.03-5.32C137.26-6.19 137.90-6.67 138.85-6.67C140.08-6.67 140.69-6.05 140.71-4.77L138.48-4.34C136.76-4.00 135.58-3.61 135.58-2.02C135.58-0.64 136.82 0.17 138.34 0.17C139.56 0.17 140.40-0.48 140.72-1.17C140.72-0.25 141.42 0 142.20 0L142.74 0L142.74-1.10L142.42-1.10C142.10-1.10 141.96-1.25 141.96-1.57L141.96-4.64C141.96-6.70 140.84-7.86 138.85-7.86C137.21-7.86 136.01-6.92 135.71-5.42ZM136.88-2.02C136.88-3.09 137.81-3.15 138.94-3.35L140.74-3.67L140.74-3.60C140.74-1.80 139.75-0.93 138.50-0.93C137.39-0.93 136.88-1.42 136.88-2.02ZM144.29-7.69L144.29 0L145.54 0L145.54-4.60C145.54-6.00 146.33-6.76 147.55-6.76C148.70-6.76 149.16-6.00 149.16-4.60L149.16 0L150.41 0L150.41-4.94C150.41-6.57 149.57-7.86 147.81-7.86C146.75-7.86 145.86-7.40 145.46-6.37L145.42-7.69ZM158.88-10.29L157.63-10.29L157.63-6.70C157.21-7.41 156.31-7.86 155.28-7.86C153.28-7.86 152.03-6.31 152.03-3.84C152.03-1.38 153.28 0.17 155.28 0.17C156.35 0.17 157.28-0.30 157.70-1.07L157.75 0L158.88 0ZM153.34-3.84C153.34-5.61 154.19-6.73 155.54-6.73C156.89-6.73 157.75-5.61 157.75-3.84C157.75-2.10 156.89-1.02 155.54-1.02C154.19-1.02 153.34-2.10 153.34-3.84ZM161.20-10.29L161.20-1.51C161.20-0.61 161.81 0 162.70 0L163.57 0L163.57-1.10L162.91-1.10C162.59-1.10 162.44-1.25 162.44-1.57L162.44-10.29ZM164.69-3.84C164.69-1.39 166.08 0.17 168.21 0.17C169.69 0.17 171.00-0.73 171.45-2.18L170.11-2.28C169.77-1.48 169.03-1.02 168.21-1.02C166.91-1.02 166.13-1.91 166.01-3.45L171.56-3.45L171.55-4.02C171.42-6.77 169.90-7.86 168.21-7.86C166.08-7.86 164.69-6.29 164.69-3.84ZM166.04-4.55C166.24-5.89 167.01-6.67 168.21-6.67C169.13-6.67 169.98-6.15 170.20-4.55ZM177.81-5.31L179.12-5.39C178.87-6.89 177.61-7.86 176.07-7.86C174.30-7.86 173.12-6.93 173.12-5.45C173.12-3.94 174.62-3.55 176.02-3.23C176.89-3.03 177.96-2.94 177.96-2.03C177.96-1.25 176.99-1.02 176.26-1.02C175.12-1.02 174.39-1.59 174.23-2.51L172.93-2.42C173.04-0.83 174.43 0.17 176.26 0.17C177.71 0.17 179.26-0.46 179.26-1.96C179.26-3.49 177.97-3.97 176.23-4.31C175.42-4.47 174.42-4.77 174.42-5.52C174.42-6.25 175.10-6.67 175.94-6.67C176.78-6.67 177.64-6.16 177.81-5.31ZM187.77 0.17C189.91 0.17 191.30-1.39 191.30-3.84C191.30-6.29 189.91-7.86 187.77-7.86C185.64-7.86 184.25-6.29 184.25-3.84C184.25-1.39 185.64 0.17 187.77 0.17ZM185.56-3.84C185.56-5.61 186.37-6.67 187.77-6.67C189.18-6.67 189.99-5.61 189.99-3.84C189.99-2.07 189.18-1.02 187.77-1.02C186.37-1.02 185.56-2.07 185.56-3.84ZM193.07-7.69L193.07 0L194.31 0L194.31-4.60C194.31-6.00 195.11-6.76 196.33-6.76C197.48-6.76 197.94-6.00 197.94-4.60L197.94 0L199.19 0L199.19-4.94C199.19-6.57 198.35-7.86 196.59-7.86C195.53-7.86 194.63-7.40 194.24-6.37L194.20-7.69ZM201.51-10.29L201.51 0L202.64 0L202.68-1.07C203.10-0.30 204.03 0.17 205.10 0.17C207.10 0.17 208.35-1.38 208.35-3.84C208.35-6.31 207.10-7.86 205.10-7.86C204.07-7.86 203.17-7.41 202.75-6.70L202.75-10.29ZM202.64-3.84C202.64-5.61 203.49-6.73 204.84-6.73C206.19-6.73 207.05-5.61 207.05-3.84C207.05-2.10 206.19-1.02 204.84-1.02C203.49-1.02 202.64-2.10 202.64-3.84ZM213.24 0.17C215.37 0.17 216.76-1.39 216.76-3.84C216.76-6.29 215.37-7.86 213.24-7.86C211.11-7.86 209.71-6.29 209.71-3.84C209.71-1.39 211.11 0.17 213.24 0.17ZM211.02-3.84C211.02-5.61 211.83-6.67 213.24-6.67C214.64-6.67 215.46-5.61 215.46-3.84C215.46-2.07 214.64-1.02 213.24-1.02C211.83-1.02 211.02-2.07 211.02-3.84ZM218.33-5.42L219.65-5.32C219.88-6.19 220.52-6.67 221.47-6.67C222.71-6.67 223.31-6.05 223.33-4.77L221.10-4.34C219.38-4.00 218.20-3.61 218.20-2.02C218.20-0.64 219.44 0.17 220.97 0.17C222.18 0.17 223.02-0.48 223.34-1.17C223.34-0.25 224.04 0 224.82 0L225.36 0L225.36-1.10L225.04-1.10C224.72-1.10 224.58-1.25 224.58-1.57L224.58-4.64C224.58-6.70 223.46-7.86 221.47-7.86C219.83-7.86 218.63-6.92 218.33-5.42ZM219.50-2.02C219.50-3.09 220.43-3.15 221.56-3.35L223.36-3.67L223.36-3.60C223.36-1.80 222.37-0.93 221.12-0.93C220.01-0.93 219.50-1.42 219.50-2.02ZM226.91-7.69L226.91 0L228.16 0L228.16-4.58C228.16-5.90 228.69-6.58 229.87-6.58L230.62-6.58L230.62-7.69L229.87-7.69C228.87-7.69 228.30-7.25 228.06-6.31L228.01-7.69ZM238.25-10.29L237.00-10.29L237.00-6.70C236.58-7.41 235.68-7.86 234.65-7.86C232.65-7.86 231.41-6.31 231.41-3.84C231.41-1.38 232.65 0.17 234.65 0.17C235.73 0.17 236.65-0.30 237.07-1.07L237.12 0L238.25 0ZM232.71-3.84C232.71-5.61 233.57-6.73 234.91-6.73C236.26-6.73 237.12-5.61 237.12-3.84C237.12-2.10 236.26-1.02 234.91-1.02C233.57-1.02 232.71-2.10 232.71-3.84ZM240.13-7.69L240.13 0L241.38 0L241.38-7.69ZM240.11-8.89L241.41-8.89L241.41-10.29L240.11-10.29ZM243.48-7.69L243.48 0L244.73 0L244.73-4.60C244.73-6.00 245.53-6.76 246.75-6.76C247.89-6.76 248.36-6.00 248.36-4.60L248.36 0L249.60 0L249.60-4.94C249.60-6.57 248.76-7.86 247.01-7.86C245.95-7.86 245.05-7.40 244.66-6.37L244.61-7.69ZM254.62-0.41C255.59-0.41 256.43-0.91 256.81-1.73L256.81-0.46C256.81 0.59 256.00 1.16 254.65 1.16C253.71 1.16 253.05 0.74 252.73 0.03L251.43 0.12C251.79 1.46 253.01 2.35 254.65 2.35C256.66 2.35 258.06 1.28 258.06-0.75L258.06-7.69L256.87-7.69L256.87-6.50C256.52-7.34 255.65-7.86 254.61-7.86C252.62-7.86 251.23-6.32 251.23-4.13C251.23-1.94 252.63-0.41 254.62-0.41ZM252.53-4.13C252.53-5.70 253.36-6.67 254.69-6.67C256.03-6.67 256.85-5.70 256.82-4.13C256.81-2.57 255.98-1.59 254.69-1.59C253.36-1.59 252.53-2.57 252.53-4.13ZM263.65-5.42L264.97-5.32C265.20-6.19 265.84-6.67 266.80-6.67C268.03-6.67 268.64-6.05 268.66-4.77L266.42-4.34C264.71-4.00 263.52-3.61 263.52-2.02C263.52-0.64 264.77 0.17 266.29 0.17C267.51 0.17 268.35-0.48 268.67-1.17C268.67-0.25 269.37 0 270.15 0L270.69 0L270.69-1.10L270.37-1.10C270.05-1.10 269.90-1.25 269.90-1.57L269.90-4.64C269.90-6.70 268.79-7.86 266.80-7.86C265.16-7.86 263.96-6.92 263.65-5.42ZM264.83-2.02C264.83-3.09 265.76-3.15 266.89-3.35L268.68-3.67L268.68-3.60C268.68-1.80 267.70-0.93 266.45-0.93C265.34-0.93 264.83-1.42 264.83-2.02ZM272.24-7.69L272.24 0L273.48 0L273.48-4.60C273.48-6.00 274.28-6.76 275.50-6.76C276.65-6.76 277.11-6.00 277.11-4.60L277.11 0L278.36 0L278.36-4.94C278.36-6.57 277.52-7.86 275.76-7.86C274.70-7.86 273.80-7.40 273.41-6.37L273.37-7.69ZM286.82-10.29L285.58-10.29L285.58-6.70C285.16-7.41 284.26-7.86 283.23-7.86C281.23-7.86 279.98-6.31 279.98-3.84C279.98-1.38 281.23 0.17 283.23 0.17C284.30 0.17 285.23-0.30 285.65-1.07L285.69 0L286.82 0ZM281.29-3.84C281.29-5.61 282.14-6.73 283.49-6.73C284.84-6.73 285.69-5.61 285.69-3.84C285.69-2.10 284.84-1.02 283.49-1.02C282.14-1.02 281.29-2.10 281.29-3.84ZM292.94-10.29L292.94 0L294.22 0L294.22-4.42L299.16-4.42L299.16-5.64L294.22-5.64L294.22-9.05L299.42-9.05L299.42-10.29ZM299.32 0L300.72 0L301.73-2.91L306.05-2.91L307.07 0L308.46 0L304.75-10.29L303.04-10.29ZM302.17-4.16L303.89-9.18L305.62-4.16ZM313.71 0.23C314.36 0.23 314.95 0.12 315.48-0.09L316.32 1.00L317.65 1.00L316.40-0.61C317.68-1.57 318.38-3.23 318.38-5.13C318.38-8.12 316.69-10.53 313.71-10.53C310.72-10.53 309.04-8.12 309.04-5.13C309.04-2.16 310.73 0.23 313.71 0.23ZM310.37-5.13C310.37-7.38 311.46-9.28 313.71-9.28C315.95-9.28 317.04-7.38 317.04-5.13C317.04-3.67 316.56-2.36 315.62-1.62L314.55-3.02L313.21-3.02L314.66-1.15C314.37-1.06 314.06-1.02 313.71-1.02C311.47-1.02 310.37-2.90 310.37-5.13ZM324.65-5.31L325.96-5.39C325.71-6.89 324.45-7.86 322.91-7.86C321.15-7.86 319.96-6.93 319.96-5.45C319.96-3.94 321.46-3.55 322.86-3.23C323.73-3.03 324.80-2.94 324.80-2.03C324.80-1.25 323.83-1.02 323.10-1.02C321.96-1.02 321.23-1.59 321.07-2.51L319.77-2.42C319.88-0.83 321.28 0.17 323.10 0.17C324.55 0.17 326.10-0.46 326.10-1.96C326.10-3.49 324.81-3.97 323.07-4.31C322.26-4.47 321.26-4.77 321.26-5.52C321.26-6.25 321.94-6.67 322.78-6.67C323.63-6.67 324.48-6.16 324.65-5.31ZM327.47-1.59L327.47 0L329.05 0L329.05-1.59Z" fill="#9AA1AB"/><rect x="26" y="198" width="49.6" height="24" rx="12" fill="#16191D" stroke="#2E333B"/><path transform="translate(37 214.1)" d="M3.89-0.92L3.01-0.92L1.56-6.87L1.56 0L0.57 0L0.57-8.16L2.07-8.16L3.45-2.40L4.83-8.16L6.33-8.16L6.33 0L5.34 0L5.34-6.87L3.89-0.92ZM10.42 0.14L10.42 0.14Q9.56 0.14 8.93-0.25Q8.30-0.64 7.96-1.36Q7.62-2.08 7.62-3.05L7.62-3.05Q7.62-4.01 7.96-4.73Q8.30-5.44 8.92-5.84Q9.53-6.23 10.37-6.23L10.37-6.23Q11.17-6.23 11.78-5.86Q12.39-5.49 12.73-4.77Q13.08-4.06 13.08-3.04L13.08-3.04L13.08-2.75L8.64-2.75Q8.69-1.77 9.16-1.28Q9.63-0.78 10.42-0.78L10.42-0.78Q11.02-0.78 11.40-1.06Q11.79-1.35 11.94-1.81L11.94-1.81L12.97-1.72Q12.73-0.91 12.06-0.39Q11.38 0.14 10.42 0.14ZM8.64-3.60L8.64-3.60L12.02-3.60Q11.95-4.49 11.50-4.90Q11.05-5.31 10.37-5.31L10.37-5.31Q9.67-5.31 9.22-4.88Q8.76-4.45 8.64-3.60ZM15.23 0L14.26 0L14.26-6.09L15.15-6.09L15.17-5.21Q15.28-5.58 15.51-5.84L15.51-5.84Q15.85-6.23 16.38-6.23L16.38-6.23Q16.92-6.23 17.22-5.84L17.22-5.84Q17.43-5.54 17.53-5.04L17.53-5.04Q17.65-5.51 17.93-5.82L17.93-5.82Q18.29-6.23 18.84-6.23L18.84-6.23Q19.57-6.23 19.91-5.73Q20.24-5.22 20.24-4.05L20.24-4.05L20.24 0L19.27 0L19.27-3.91Q19.27-4.73 19.10-5.05Q18.93-5.38 18.56-5.38L18.56-5.38Q18.32-5.38 18.14-5.23Q17.95-5.07 17.84-4.74Q17.73-4.40 17.73-3.89L17.73-3.89L17.73 0L16.77 0L16.77-3.91Q16.77-4.69 16.60-5.04Q16.43-5.38 16.05-5.38L16.05-5.38Q15.81-5.38 15.63-5.23Q15.44-5.07 15.34-4.74Q15.23-4.40 15.23-3.89L15.23-3.89L15.23 0ZM24.15 0.18L24.15 0.18Q23.26 0.18 22.61-0.33Q21.96-0.85 21.62-1.81Q21.27-2.76 21.27-4.07L21.27-4.07Q21.27-5.39 21.62-6.35Q21.96-7.30 22.61-7.83Q23.26-8.35 24.15-8.35L24.15-8.35Q25.05-8.35 25.69-7.83Q26.34-7.30 26.68-6.35Q27.02-5.39 27.02-4.07L27.02-4.07Q27.02-2.76 26.68-1.81Q26.34-0.85 25.69-0.33Q25.05 0.18 24.15 0.18ZM24.15-0.78L24.15-0.78Q24.73-0.78 25.13-1.18Q25.54-1.59 25.77-2.33Q25.99-3.07 25.99-4.07L25.99-4.07Q25.99-5.09 25.77-5.84L25.77-5.84Q25.74-5.95 25.70-6.04L25.70-6.04L23.08-1.28Q23.13-1.23 23.17-1.18L23.17-1.18Q23.59-0.78 24.15-0.78ZM22.60-2.13L25.22-6.89Q25.17-6.93 25.14-6.98L25.14-6.98Q24.73-7.38 24.15-7.38L24.15-7.38Q23.59-7.38 23.17-6.98Q22.76-6.58 22.53-5.84Q22.31-5.09 22.31-4.07L22.31-4.07Q22.31-3.07 22.54-2.33L22.54-2.33Q22.56-2.22 22.60-2.13L22.60-2.13Z" fill="#9AA1AB"/><rect x="81.6" y="198" width="63.4" height="24" rx="12" fill="#16191D" stroke="#2E333B"/><path transform="translate(92.6 214.1)" d="M5.36 1.37L4.37 1.37L3.90 0.15Q3.68 0.18 3.45 0.18L3.45 0.18Q2.48 0.18 1.81-0.31Q1.14-0.80 0.79-1.76Q0.44-2.71 0.44-4.07L0.44-4.07Q0.44-5.45 0.79-6.41Q1.14-7.36 1.81-7.85Q2.48-8.35 3.45-8.35Q4.42-8.35 5.09-7.85Q5.76-7.36 6.11-6.41Q6.46-5.45 6.46-4.07L6.46-4.07Q6.46-2.71 6.11-1.76Q5.76-0.80 5.09-0.31L5.09-0.31Q4.95-0.21 4.78-0.11L4.78-0.11L5.36 1.37ZM3.45-0.78L3.45-0.78Q3.50-0.78 3.54-0.78L3.54-0.78L2.88-2.51L3.86-2.51L4.42-1.08Q4.70-1.28 4.91-1.63L4.91-1.63Q5.16-2.05 5.30-2.66Q5.43-3.27 5.43-4.07L5.43-4.07Q5.43-5.14 5.20-5.88Q4.97-6.62 4.53-7.00Q4.08-7.38 3.45-7.38Q2.82-7.38 2.37-7.00Q1.93-6.62 1.70-5.88Q1.47-5.14 1.47-4.07Q1.47-3.00 1.70-2.27Q1.93-1.53 2.37-1.16Q2.82-0.78 3.45-0.78ZM9.97 0.14L9.97 0.14Q9.17 0.14 8.58-0.25Q7.99-0.64 7.68-1.36Q7.36-2.07 7.36-3.05Q7.36-4.03 7.68-4.74Q7.99-5.45 8.58-5.84Q9.17-6.23 9.97-6.23L9.97-6.23Q10.46-6.23 10.86-6.05Q11.26-5.87 11.53-5.59L11.53-5.59Q11.70-5.42 11.80-5.24L11.80-5.24L11.80-8.16L12.77-8.16L12.77 0L11.89 0L11.86-0.91Q11.73-0.68 11.56-0.49L11.56-0.49Q11.26-0.18 10.86-0.02Q10.45 0.14 9.97 0.14ZM10.03-0.78L10.03-0.78Q10.58-0.78 10.98-1.06Q11.37-1.33 11.59-1.85Q11.80-2.36 11.80-3.05L11.80-3.05Q11.80-3.76 11.59-4.27Q11.37-4.77 10.97-5.04Q10.57-5.31 10.00-5.31L10.00-5.31Q9.26-5.31 8.81-4.71Q8.37-4.11 8.37-3.05L8.37-3.05Q8.37-2.00 8.81-1.39Q9.26-0.78 10.03-0.78ZM19.32 0L14.83 0L14.83-0.85L16.42-0.85L16.42-5.24L14.83-5.24L14.83-6.09L17.23-6.09L17.30-4.91Q17.42-5.43 17.71-5.72L17.71-5.72Q18.10-6.09 18.76-6.09L18.76-6.09L20.01-6.09L20.01-5.22L18.77-5.22Q18.32-5.22 18.01-5.04Q17.71-4.86 17.55-4.53Q17.39-4.19 17.39-3.68L17.39-3.68L17.39-0.85L19.32-0.85L19.32 0ZM23.34 0.14L23.34 0.14Q22.77 0.14 22.31-0.07Q21.85-0.28 21.59-0.65Q21.32-1.02 21.32-1.52L21.32-1.52Q21.32-2.30 21.79-2.73Q22.25-3.16 23.25-3.36L23.25-3.36L25.30-3.77Q25.30-4.55 24.95-4.93Q24.60-5.31 23.94-5.31L23.94-5.31Q23.31-5.31 22.95-5.03Q22.60-4.75 22.46-4.22L22.46-4.22L21.44-4.30Q21.61-5.16 22.26-5.70Q22.91-6.23 23.94-6.23L23.94-6.23Q25.05-6.23 25.66-5.57Q26.27-4.91 26.27-3.75L26.27-3.75L26.27-1.22Q26.27-1.01 26.36-0.93Q26.45-0.85 26.63-0.85L26.63-0.85L27.02-0.85L27.02 0Q26.96 0.01 26.81 0.02Q26.66 0.02 26.52 0.02L26.52 0.02Q26.13 0.02 25.86-0.10Q25.59-0.23 25.45-0.52L25.45-0.52Q25.38-0.66 25.33-0.85L25.33-0.85Q25.24-0.69 25.10-0.54L25.10-0.54Q24.79-0.22 24.33-0.04Q23.87 0.14 23.34 0.14ZM23.44-0.71L23.44-0.71Q24.06-0.71 24.47-0.93Q24.89-1.14 25.09-1.52Q25.30-1.91 25.30-2.42L25.30-2.42L25.30-2.94L23.44-2.58Q22.82-2.46 22.57-2.23Q22.33-1.99 22.33-1.61L22.33-1.61Q22.33-1.18 22.63-0.95Q22.92-0.71 23.44-0.71ZM29.53 0L28.57 0L28.57-6.09L29.45-6.09L29.47-5.00Q29.59-5.31 29.80-5.54L29.80-5.54Q30.10-5.89 30.52-6.06Q30.95-6.23 31.42-6.23L31.42-6.23Q32.12-6.23 32.59-5.92Q33.05-5.61 33.29-5.09Q33.53-4.57 33.53-3.92L33.53-3.92L33.53 0L32.57 0L32.57-3.65Q32.57-4.50 32.23-4.94Q31.90-5.38 31.21-5.38L31.21-5.38Q30.74-5.38 30.36-5.18Q29.98-4.98 29.76-4.59Q29.53-4.21 29.53-3.65L29.53-3.65L29.53 0ZM40.48 0L38.85 0Q37.96 0 37.52-0.41Q37.09-0.83 37.09-1.68L37.09-1.68L37.09-5.24L35.08-5.24L35.08-6.09L37.09-6.09L37.09-7.52L38.05-7.52L38.05-6.09L40.48-6.09L40.48-5.24L38.05-5.24L38.05-1.68Q38.05-1.25 38.25-1.05Q38.44-0.85 38.85-0.85L38.85-0.85L40.48-0.85L40.48 0Z" fill="#9AA1AB"/><rect x="151" y="198" width="111.7" height="24" rx="12" fill="#16191D" stroke="#2E333B"/><path transform="translate(162 214.1)" d="M3.43 0.18L3.43 0.18Q2.56 0.18 1.89-0.29Q1.22-0.77 0.83-1.72Q0.44-2.67 0.44-4.07L0.44-4.07Q0.44-5.39 0.80-6.35Q1.16-7.30 1.84-7.83Q2.52-8.35 3.47-8.35L3.47-8.35Q4.22-8.35 4.80-8.02Q5.38-7.68 5.77-7.09Q6.16-6.50 6.34-5.73L6.34-5.73L5.30-5.66Q5.11-6.42 4.65-6.90Q4.20-7.38 3.47-7.38L3.47-7.38Q2.84-7.38 2.39-7.00Q1.94-6.61 1.71-5.87Q1.47-5.13 1.47-4.07L1.47-4.07Q1.47-3.02 1.71-2.29Q1.96-1.55 2.41-1.17Q2.86-0.78 3.52-0.78L3.52-0.78Q4.11-0.78 4.53-1.09Q4.95-1.39 5.19-1.94Q5.43-2.48 5.45-3.19L5.45-3.19L3.50-3.19L3.50-4.13L6.37-4.13L6.37 0L5.45 0L5.43-1.14Q5.34-0.95 5.24-0.79L5.24-0.79Q4.96-0.33 4.51-0.07Q4.07 0.18 3.43 0.18ZM10.35 0.14L10.35 0.14Q9.51 0.14 8.88-0.25Q8.26-0.64 7.91-1.36Q7.57-2.08 7.57-3.05L7.57-3.05Q7.57-4.03 7.91-4.74Q8.26-5.45 8.88-5.84Q9.51-6.23 10.35-6.23L10.35-6.23Q11.19-6.23 11.82-5.84Q12.44-5.45 12.79-4.74Q13.13-4.03 13.13-3.05L13.13-3.05Q13.13-2.08 12.79-1.36Q12.44-0.64 11.82-0.25Q11.19 0.14 10.35 0.14ZM10.35-0.78L10.35-0.78Q11.19-0.78 11.66-1.39Q12.12-1.99 12.12-3.05L12.12-3.05Q12.12-4.11 11.66-4.71Q11.19-5.31 10.35-5.31L10.35-5.31Q9.51-5.31 9.04-4.71Q8.58-4.11 8.58-3.05L8.58-3.05Q8.58-1.99 9.04-1.39Q9.51-0.78 10.35-0.78ZM17.25 0.14L17.25 0.14Q16.41 0.14 15.78-0.25Q15.16-0.64 14.81-1.36Q14.47-2.08 14.47-3.05L14.47-3.05Q14.47-4.03 14.81-4.74Q15.16-5.45 15.78-5.84Q16.41-6.23 17.25-6.23L17.25-6.23Q18.09-6.23 18.72-5.84Q19.34-5.45 19.69-4.74Q20.03-4.03 20.03-3.05L20.03-3.05Q20.03-2.08 19.69-1.36Q19.34-0.64 18.72-0.25Q18.09 0.14 17.25 0.14ZM17.25-0.78L17.25-0.78Q18.09-0.78 18.56-1.39Q19.02-1.99 19.02-3.05L19.02-3.05Q19.02-4.11 18.56-4.71Q18.09-5.31 17.25-5.31L17.25-5.31Q16.41-5.31 15.94-4.71Q15.48-4.11 15.48-3.05L15.48-3.05Q15.48-1.99 15.94-1.39Q16.41-0.78 17.25-0.78ZM24.12 1.86L24.12 1.86Q23.46 1.86 22.93 1.64Q22.40 1.43 22.05 1.02Q21.69 0.62 21.56 0.09L21.56 0.09L22.57 0.02Q22.71 0.45 23.06 0.70Q23.41 0.94 24.12 0.94L24.12 0.94Q24.94 0.94 25.39 0.61Q25.83 0.28 25.83-0.39L25.83-0.39L25.83-1.38Q25.61-0.90 25.13-0.61Q24.64-0.32 24.05-0.32L24.05-0.32Q23.28-0.32 22.67-0.70Q22.07-1.08 21.73-1.75Q21.39-2.42 21.39-3.28L21.39-3.28Q21.39-4.15 21.72-4.81Q22.06-5.47 22.65-5.85Q23.24-6.23 24.00-6.23L24.00-6.23Q24.64-6.23 25.16-5.93Q25.67-5.63 25.88-5.13L25.88-5.13L25.88-6.09L26.79-6.09L26.79-0.41Q26.79 0.30 26.47 0.81Q26.15 1.32 25.55 1.59Q24.95 1.86 24.12 1.86ZM24.09-1.24L24.09-1.24Q24.87-1.24 25.35-1.79Q25.82-2.33 25.83-3.28L25.83-3.28Q25.84-3.91 25.63-4.36Q25.41-4.82 25.02-5.07Q24.62-5.31 24.09-5.31L24.09-5.31Q23.29-5.31 22.84-4.77Q22.40-4.22 22.40-3.28L22.40-3.28Q22.40-2.33 22.86-1.79Q23.31-1.24 24.09-1.24ZM33.81 0L28.29 0L28.29-0.85L30.74-0.85L30.74-6.53Q30.74-6.90 30.53-7.11Q30.33-7.31 29.96-7.31L29.96-7.31L28.52-7.31L28.52-8.16L30.00-8.16Q30.84-8.16 31.27-7.73Q31.71-7.30 31.71-6.46L31.71-6.46L31.71-0.85L33.81-0.85L33.81 0ZM38.02 0.14L38.02 0.14Q37.16 0.14 36.53-0.25Q35.90-0.64 35.56-1.36Q35.22-2.08 35.22-3.05L35.22-3.05Q35.22-4.01 35.56-4.73Q35.90-5.44 36.52-5.84Q37.13-6.23 37.97-6.23L37.97-6.23Q38.77-6.23 39.38-5.86Q39.99-5.49 40.33-4.77Q40.68-4.06 40.68-3.04L40.68-3.04L40.68-2.75L36.24-2.75Q36.29-1.77 36.76-1.28Q37.23-0.78 38.02-0.78L38.02-0.78Q38.62-0.78 39.00-1.06Q39.39-1.35 39.54-1.81L39.54-1.81L40.57-1.72Q40.33-0.91 39.66-0.39Q38.98 0.14 38.02 0.14ZM36.24-3.60L36.24-3.60L39.62-3.60Q39.55-4.49 39.10-4.90Q38.65-5.31 37.97-5.31L37.97-5.31Q37.27-5.31 36.82-4.88Q36.36-4.45 36.24-3.60ZM51.73 0.18L51.73 0.18Q50.86 0.18 50.19-0.29Q49.52-0.77 49.13-1.72Q48.74-2.67 48.74-4.07L48.74-4.07Q48.74-5.39 49.10-6.35Q49.46-7.30 50.14-7.83Q50.82-8.35 51.77-8.35L51.77-8.35Q52.52-8.35 53.10-8.02Q53.68-7.68 54.07-7.09Q54.46-6.50 54.64-5.73L54.64-5.73L53.60-5.66Q53.41-6.42 52.95-6.90Q52.50-7.38 51.77-7.38L51.77-7.38Q51.14-7.38 50.69-7.00Q50.24-6.61 50.01-5.87Q49.77-5.13 49.77-4.07L49.77-4.07Q49.77-3.02 50.01-2.29Q50.25-1.55 50.71-1.17Q51.16-0.78 51.82-0.78L51.82-0.78Q52.41-0.78 52.83-1.09Q53.24-1.39 53.49-1.94Q53.73-2.48 53.75-3.19L53.75-3.19L51.80-3.19L51.80-4.13L54.67-4.13L54.67 0L53.75 0L53.73-1.14Q53.64-0.95 53.54-0.79L53.54-0.79Q53.26-0.33 52.81-0.07Q52.37 0.18 51.73 0.18ZM58.72 0.14L58.72 0.14Q57.86 0.14 57.23-0.25Q56.60-0.64 56.26-1.36Q55.92-2.08 55.92-3.05L55.92-3.05Q55.92-4.01 56.26-4.73Q56.60-5.44 57.22-5.84Q57.83-6.23 58.67-6.23L58.67-6.23Q59.47-6.23 60.08-5.86Q60.69-5.49 61.03-4.77Q61.38-4.06 61.38-3.04L61.38-3.04L61.38-2.75L56.94-2.75Q56.99-1.77 57.46-1.28Q57.93-0.78 58.72-0.78L58.72-0.78Q59.32-0.78 59.70-1.06Q60.09-1.35 60.24-1.81L60.24-1.81L61.27-1.72Q61.03-0.91 60.36-0.39Q59.68 0.14 58.72 0.14ZM56.94-3.60L56.94-3.60L60.32-3.60Q60.25-4.49 59.80-4.90Q59.35-5.31 58.67-5.31L58.67-5.31Q57.97-5.31 57.52-4.88Q57.06-4.45 56.94-3.60ZM63.53 0L62.56 0L62.56-6.09L63.45-6.09L63.47-5.21Q63.58-5.58 63.81-5.84L63.81-5.84Q64.15-6.23 64.68-6.23L64.68-6.23Q65.22-6.23 65.52-5.84L65.52-5.84Q65.73-5.54 65.83-5.04L65.83-5.04Q65.95-5.51 66.23-5.82L66.23-5.82Q66.58-6.23 67.14-6.23L67.14-6.23Q67.87-6.23 68.21-5.73Q68.54-5.22 68.54-4.05L68.54-4.05L68.54 0L67.57 0L67.57-3.91Q67.57-4.73 67.40-5.05Q67.23-5.38 66.86-5.38L66.86-5.38Q66.62-5.38 66.44-5.23Q66.25-5.07 66.14-4.74Q66.03-4.40 66.03-3.89L66.03-3.89L66.03 0L65.07 0L65.07-3.91Q65.07-4.69 64.90-5.04Q64.73-5.38 64.35-5.38L64.35-5.38Q64.11-5.38 63.93-5.23Q63.74-5.07 63.64-4.74Q63.53-4.40 63.53-3.89L63.53-3.89L63.53 0ZM75.44 0L69.92 0L69.92-0.85L72.37-0.85L72.37-5.24L70.03-5.24L70.03-6.09L73.34-6.09L73.34-0.85L75.44-0.85L75.44 0ZM73.29-7.05L72.28-7.05L72.28-8.18L73.29-8.18L73.29-7.05ZM77.83 0L76.87 0L76.87-6.09L77.75-6.09L77.77-5.00Q77.89-5.31 78.10-5.54L78.10-5.54Q78.40-5.89 78.82-6.06Q79.25-6.23 79.72-6.23L79.72-6.23Q80.42-6.23 80.89-5.92Q81.35-5.61 81.59-5.09Q81.83-4.57 81.83-3.92L81.83-3.92L81.83 0L80.87 0L80.87-3.65Q80.87-4.50 80.53-4.94Q80.20-5.38 79.51-5.38L79.51-5.38Q79.04-5.38 78.66-5.18Q78.28-4.98 78.06-4.59Q77.83-4.21 77.83-3.65L77.83-3.65L77.83 0ZM89.24 0L83.72 0L83.72-0.85L86.17-0.85L86.17-5.24L83.84-5.24L83.84-6.09L87.14-6.09L87.14-0.85L89.24-0.85L89.24 0ZM87.09-7.05L86.08-7.05L86.08-8.18L87.09-8.18L87.09-7.05Z" fill="#9AA1AB"/><rect x="268.7" y="198" width="91" height="24" rx="12" fill="#16191D" stroke="#2E333B"/><path transform="translate(279.7 214.1)" d="M3.07 0.14L3.07 0.14Q2.27 0.14 1.68-0.25Q1.09-0.64 0.78-1.36Q0.46-2.07 0.46-3.05Q0.46-4.03 0.78-4.74Q1.09-5.45 1.68-5.84Q2.27-6.23 3.07-6.23L3.07-6.23Q3.56-6.23 3.96-6.05Q4.36-5.87 4.63-5.59L4.63-5.59Q4.80-5.42 4.90-5.24L4.90-5.24L4.90-8.16L5.87-8.16L5.87 0L4.99 0L4.96-0.91Q4.83-0.68 4.66-0.49L4.66-0.49Q4.36-0.18 3.96-0.02Q3.55 0.14 3.07 0.14ZM3.13-0.78L3.13-0.78Q3.68-0.78 4.08-1.06Q4.47-1.33 4.69-1.85Q4.90-2.36 4.90-3.05L4.90-3.05Q4.90-3.76 4.69-4.27Q4.47-4.77 4.07-5.04Q3.67-5.31 3.10-5.31L3.10-5.31Q2.36-5.31 1.91-4.71Q1.47-4.11 1.47-3.05L1.47-3.05Q1.47-2.00 1.91-1.39Q2.36-0.78 3.13-0.78ZM13.34 0L7.82 0L7.82-0.85L10.27-0.85L10.27-5.24L7.93-5.24L7.93-6.09L11.24-6.09L11.24-0.85L13.34-0.85L13.34 0ZM11.19-7.05L10.18-7.05L10.18-8.18L11.19-8.18L11.19-7.05ZM17.36 0.14L17.36 0.14Q16.57 0.14 16.00-0.14Q15.42-0.41 15.09-0.88Q14.77-1.35 14.72-1.92L14.72-1.92L15.73-1.99Q15.82-1.43 16.23-1.10Q16.64-0.78 17.36-0.78L17.36-0.78Q18.04-0.78 18.42-0.98Q18.79-1.17 18.79-1.59L18.79-1.59Q18.79-1.85 18.66-2.02Q18.54-2.20 18.19-2.32Q17.85-2.44 17.18-2.55L17.18-2.55Q16.30-2.71 15.80-2.95Q15.29-3.19 15.09-3.54Q14.88-3.90 14.88-4.39L14.88-4.39Q14.88-4.92 15.15-5.34Q15.41-5.75 15.93-5.99Q16.45-6.23 17.19-6.23L17.19-6.23Q17.95-6.23 18.46-5.96Q18.97-5.69 19.27-5.25Q19.57-4.81 19.66-4.28L19.66-4.28L18.65-4.21Q18.58-4.53 18.39-4.78Q18.20-5.03 17.90-5.17Q17.59-5.31 17.18-5.31L17.18-5.31Q16.51-5.31 16.19-5.05Q15.87-4.78 15.87-4.39L15.87-4.39Q15.87-4.08 16.02-3.90Q16.17-3.71 16.50-3.61Q16.84-3.50 17.39-3.40L17.39-3.40Q18.33-3.25 18.85-3.02Q19.37-2.78 19.57-2.44Q19.78-2.09 19.78-1.59L19.78-1.59Q19.78-1.05 19.46-0.66Q19.15-0.28 18.60-0.07Q18.05 0.14 17.36 0.14ZM24.31 0.14L24.31 0.14Q23.46 0.14 22.83-0.25Q22.20-0.64 21.85-1.36Q21.50-2.08 21.50-3.05L21.50-3.05Q21.50-4.01 21.85-4.73Q22.20-5.44 22.83-5.84Q23.46-6.23 24.31-6.23L24.31-6.23Q24.99-6.23 25.52-5.99Q26.05-5.74 26.39-5.27Q26.74-4.80 26.86-4.12L26.86-4.12L25.85-4.05Q25.71-4.66 25.31-4.99Q24.90-5.31 24.31-5.31L24.31-5.31Q23.47-5.31 22.99-4.71Q22.52-4.11 22.52-3.05L22.52-3.05Q22.52-1.99 22.99-1.39Q23.47-0.78 24.31-0.78L24.31-0.78Q24.90-0.78 25.33-1.13Q25.76-1.47 25.90-2.16L25.90-2.16L26.91-2.09Q26.78-1.41 26.43-0.91Q26.07-0.41 25.53-0.14Q24.99 0.14 24.31 0.14ZM31.05 0.14L31.05 0.14Q30.21 0.14 29.58-0.25Q28.96-0.64 28.61-1.36Q28.27-2.08 28.27-3.05L28.27-3.05Q28.27-4.03 28.61-4.74Q28.96-5.45 29.58-5.84Q30.21-6.23 31.05-6.23L31.05-6.23Q31.89-6.23 32.52-5.84Q33.14-5.45 33.49-4.74Q33.83-4.03 33.83-3.05L33.83-3.05Q33.83-2.08 33.49-1.36Q33.14-0.64 32.52-0.25Q31.89 0.14 31.05 0.14ZM31.05-0.78L31.05-0.78Q31.89-0.78 32.36-1.39Q32.82-1.99 32.82-3.05L32.82-3.05Q32.82-4.11 32.36-4.71Q31.89-5.31 31.05-5.31L31.05-5.31Q30.21-5.31 29.74-4.71Q29.28-4.11 29.28-3.05L29.28-3.05Q29.28-1.99 29.74-1.39Q30.21-0.78 31.05-0.78ZM40.02 0L35.53 0L35.53-0.85L37.12-0.85L37.12-5.24L35.53-5.24L35.53-6.09L37.93-6.09L38.00-4.91Q38.12-5.43 38.41-5.72L38.41-5.72Q38.80-6.09 39.46-6.09L39.46-6.09L40.71-6.09L40.71-5.22L39.47-5.22Q39.02-5.22 38.71-5.04Q38.41-4.86 38.25-4.53Q38.09-4.19 38.09-3.68L38.09-3.68L38.09-0.85L40.02-0.85L40.02 0ZM44.47 0.14L44.47 0.14Q43.67 0.14 43.08-0.25Q42.49-0.64 42.18-1.36Q41.86-2.07 41.86-3.05Q41.86-4.03 42.18-4.74Q42.49-5.45 43.08-5.84Q43.67-6.23 44.47-6.23L44.47-6.23Q44.96-6.23 45.36-6.05Q45.76-5.87 46.03-5.59L46.03-5.59Q46.20-5.42 46.30-5.24L46.30-5.24L46.30-8.16L47.27-8.16L47.27 0L46.39 0L46.36-0.91Q46.23-0.68 46.06-0.49L46.06-0.49Q45.76-0.18 45.36-0.02Q44.95 0.14 44.47 0.14ZM44.53-0.78L44.53-0.78Q45.08-0.78 45.48-1.06Q45.87-1.33 46.09-1.85Q46.30-2.36 46.30-3.05L46.30-3.05Q46.30-3.76 46.09-4.27Q45.87-4.77 45.47-5.04Q45.07-5.31 44.50-5.31L44.50-5.31Q43.76-5.31 43.31-4.71Q42.87-4.11 42.87-3.05L42.87-3.05Q42.87-2.00 43.31-1.39Q43.76-0.78 44.53-0.78ZM52.46 0L51.04 0L51.04-1.40L52.46-1.40L52.46 0ZM57.09 1.72L56.12 1.72L56.12-6.09L57.02-6.09L57.03-5.12Q57.26-5.59 57.67-5.87L57.67-5.87Q58.20-6.23 58.90-6.23L58.90-6.23Q59.81-6.23 60.39-5.78Q60.97-5.34 61.25-4.61Q61.52-3.89 61.52-3.05Q61.52-2.21 61.25-1.48Q60.97-0.76 60.39-0.31Q59.81 0.14 58.90 0.14L58.90 0.14Q58.43 0.14 58.02-0.02Q57.61-0.18 57.34-0.47L57.34-0.47Q57.19-0.62 57.09-0.80L57.09-0.80L57.09 1.72ZM58.81-0.78L58.81-0.78Q59.60-0.78 60.06-1.38Q60.51-1.98 60.51-3.05Q60.51-4.12 60.06-4.71Q59.60-5.31 58.81-5.31L58.81-5.31Q58.28-5.31 57.90-5.06Q57.51-4.81 57.30-4.30Q57.09-3.79 57.09-3.05Q57.09-2.30 57.29-1.79Q57.50-1.29 57.89-1.03Q58.28-0.78 58.81-0.78ZM64.46 1.72L63.66 1.72L63.66 0.87L64.37 0.87Q64.69 0.87 64.84 0.78Q65.00 0.68 65.08 0.46L65.08 0.46L65.30-0.11L64.96-0.11L62.70-6.09L63.76-6.09L65.61-1.01L67.34-6.09L68.40-6.09L65.93 0.77Q65.76 1.26 65.41 1.49Q65.07 1.72 64.46 1.72L64.46 1.72Z" fill="#9AA1AB"/><rect x="26" y="228" width="63.4" height="24" rx="12" fill="#16191D" stroke="#2E333B"/><path transform="translate(37 244.1)" d="M3.58 0.18L3.58 0.18Q2.71 0.18 2.05-0.17Q1.38-0.53 0.98-1.16Q0.57-1.78 0.51-2.61L0.51-2.61L1.54-2.68Q1.62-2.07 1.89-1.64Q2.16-1.22 2.59-1.00Q3.02-0.78 3.60-0.78L3.60-0.78Q4.17-0.78 4.57-0.93Q4.96-1.07 5.16-1.35Q5.36-1.63 5.36-2.04L5.36-2.04Q5.36-2.43 5.18-2.71Q5.00-2.99 4.51-3.24Q4.03-3.48 3.07-3.75L3.07-3.75Q2.22-3.99 1.70-4.28Q1.17-4.58 0.94-5.00Q0.70-5.42 0.70-6.03L0.70-6.03Q0.70-6.72 1.03-7.24Q1.36-7.76 1.97-8.06Q2.58-8.35 3.42-8.35L3.42-8.35Q4.25-8.35 4.85-8.01Q5.45-7.67 5.80-7.08Q6.15-6.50 6.24-5.75L6.24-5.75L5.21-5.68Q5.14-6.18 4.92-6.56Q4.70-6.95 4.32-7.16Q3.94-7.38 3.39-7.38L3.39-7.38Q2.63-7.38 2.19-7.02Q1.74-6.66 1.74-6.07L1.74-6.07Q1.74-5.69 1.90-5.45Q2.07-5.20 2.50-5.01Q2.92-4.82 3.69-4.60L3.69-4.60Q4.69-4.32 5.28-3.98Q5.88-3.63 6.14-3.16Q6.39-2.69 6.39-2.01L6.39-2.01Q6.39-1.37 6.04-0.87Q5.68-0.37 5.05-0.09Q4.42 0.18 3.58 0.18ZM12.26 1.37L11.27 1.37L10.80 0.15Q10.58 0.18 10.35 0.18L10.35 0.18Q9.38 0.18 8.71-0.31Q8.04-0.80 7.69-1.76Q7.34-2.71 7.34-4.07L7.34-4.07Q7.34-5.45 7.69-6.41Q8.04-7.36 8.71-7.85Q9.38-8.35 10.35-8.35Q11.32-8.35 11.99-7.85Q12.66-7.36 13.01-6.41Q13.36-5.45 13.36-4.07L13.36-4.07Q13.36-2.71 13.01-1.76Q12.66-0.80 11.99-0.31L11.99-0.31Q11.84-0.21 11.68-0.11L11.68-0.11L12.26 1.37ZM10.35-0.78L10.35-0.78Q10.40-0.78 10.44-0.78L10.44-0.78L9.77-2.51L10.76-2.51L11.32-1.08Q11.60-1.28 11.81-1.63L11.81-1.63Q12.06-2.05 12.20-2.66Q12.33-3.27 12.33-4.07L12.33-4.07Q12.33-5.14 12.10-5.88Q11.87-6.62 11.43-7.00Q10.98-7.38 10.35-7.38Q9.72-7.38 9.27-7.00Q8.83-6.62 8.60-5.88Q8.37-5.14 8.37-4.07Q8.37-3.00 8.60-2.27Q8.83-1.53 9.27-1.16Q9.72-0.78 10.35-0.78ZM20.01 0L14.95 0L14.95-8.16L15.94-8.16L15.94-0.97L20.01-0.97L20.01 0ZM27.14 0L21.62 0L21.62-0.85L24.07-0.85L24.07-5.24L21.73-5.24L21.73-6.09L25.04-6.09L25.04-0.85L27.14-0.85L27.14 0ZM24.99-7.05L23.98-7.05L23.98-8.18L24.99-8.18L24.99-7.05ZM33.58 0L31.95 0Q31.06 0 30.62-0.41Q30.19-0.83 30.19-1.68L30.19-1.68L30.19-5.24L28.17-5.24L28.17-6.09L30.19-6.09L30.19-7.52L31.15-7.52L31.15-6.09L33.58-6.09L33.58-5.24L31.15-5.24L31.15-1.68Q31.15-1.25 31.35-1.05Q31.54-0.85 31.95-0.85L31.95-0.85L33.58-0.85L33.58 0ZM38.02 0.14L38.02 0.14Q37.16 0.14 36.53-0.25Q35.90-0.64 35.56-1.36Q35.22-2.08 35.22-3.05L35.22-3.05Q35.22-4.01 35.56-4.73Q35.90-5.44 36.52-5.84Q37.13-6.23 37.97-6.23L37.97-6.23Q38.77-6.23 39.38-5.86Q39.99-5.49 40.33-4.77Q40.68-4.06 40.68-3.04L40.68-3.04L40.68-2.75L36.24-2.75Q36.29-1.77 36.76-1.28Q37.23-0.78 38.02-0.78L38.02-0.78Q38.62-0.78 39.00-1.06Q39.39-1.35 39.54-1.81L39.54-1.81L40.57-1.72Q40.33-0.91 39.66-0.39Q38.98 0.14 38.02 0.14ZM36.24-3.60L36.24-3.60L39.62-3.60Q39.55-4.49 39.10-4.90Q38.65-5.31 37.97-5.31L37.97-5.31Q37.27-5.31 36.82-4.88Q36.36-4.45 36.24-3.60Z" fill="#9AA1AB"/><rect x="95.4" y="228" width="63.4" height="24" rx="12" fill="#16191D" stroke="#2E333B"/><path transform="translate(106.4 244.1)" d="M2.97 0L1.03 0L1.03-8.16L2.97-8.16Q4.03-8.16 4.81-7.69Q5.60-7.21 6.03-6.30Q6.46-5.38 6.46-4.07L6.46-4.07Q6.46-2.76 6.03-1.85Q5.60-0.94 4.81-0.47Q4.03 0 2.97 0L2.97 0ZM2.02-7.20L2.02-0.97L2.91-0.97Q4.11-0.97 4.77-1.74Q5.43-2.52 5.43-4.07L5.43-4.07Q5.43-5.62 4.77-6.41Q4.11-7.20 2.91-7.20L2.91-7.20L2.02-7.20ZM10.35 0.14L10.35 0.14Q9.51 0.14 8.88-0.25Q8.26-0.64 7.91-1.36Q7.57-2.08 7.57-3.05L7.57-3.05Q7.57-4.03 7.91-4.74Q8.26-5.45 8.88-5.84Q9.51-6.23 10.35-6.23L10.35-6.23Q11.19-6.23 11.82-5.84Q12.44-5.45 12.79-4.74Q13.13-4.03 13.13-3.05L13.13-3.05Q13.13-2.08 12.79-1.36Q12.44-0.64 11.82-0.25Q11.19 0.14 10.35 0.14ZM10.35-0.78L10.35-0.78Q11.19-0.78 11.66-1.39Q12.12-1.99 12.12-3.05L12.12-3.05Q12.12-4.11 11.66-4.71Q11.19-5.31 10.35-5.31L10.35-5.31Q9.51-5.31 9.04-4.71Q8.58-4.11 8.58-3.05L8.58-3.05Q8.58-1.99 9.04-1.39Q9.51-0.78 10.35-0.78ZM17.41 0.14L17.41 0.14Q16.56 0.14 15.93-0.25Q15.29-0.64 14.95-1.36Q14.60-2.08 14.60-3.05L14.60-3.05Q14.60-4.01 14.95-4.73Q15.29-5.44 15.93-5.84Q16.56-6.23 17.41-6.23L17.41-6.23Q18.09-6.23 18.62-5.99Q19.15-5.74 19.49-5.27Q19.84-4.80 19.96-4.12L19.96-4.12L18.95-4.05Q18.81-4.66 18.41-4.99Q18.00-5.31 17.41-5.31L17.41-5.31Q16.57-5.31 16.09-4.71Q15.62-4.11 15.62-3.05L15.62-3.05Q15.62-1.99 16.09-1.39Q16.57-0.78 17.41-0.78L17.41-0.78Q18.00-0.78 18.43-1.13Q18.86-1.47 19.00-2.16L19.00-2.16L20.01-2.09Q19.88-1.41 19.53-0.91Q19.17-0.41 18.63-0.14Q18.09 0.14 17.41 0.14ZM22.70 0L21.73 0L21.73-8.16L22.70-8.16L22.70-2.82L25.67-6.09L26.96-6.09L24.55-3.51L27.07 0L25.90 0L23.90-2.85L22.70-1.59L22.70 0ZM31.12 0.14L31.12 0.14Q30.26 0.14 29.63-0.25Q29.00-0.64 28.66-1.36Q28.32-2.08 28.32-3.05L28.32-3.05Q28.32-4.01 28.66-4.73Q29.00-5.44 29.62-5.84Q30.23-6.23 31.07-6.23L31.07-6.23Q31.87-6.23 32.48-5.86Q33.09-5.49 33.43-4.77Q33.78-4.06 33.78-3.04L33.78-3.04L33.78-2.75L29.34-2.75Q29.39-1.77 29.86-1.28Q30.33-0.78 31.12-0.78L31.12-0.78Q31.72-0.78 32.10-1.06Q32.49-1.35 32.64-1.81L32.64-1.81L33.67-1.72Q33.43-0.91 32.76-0.39Q32.09 0.14 31.12 0.14ZM29.34-3.60L29.34-3.60L32.72-3.60Q32.65-4.49 32.20-4.90Q31.75-5.31 31.07-5.31L31.07-5.31Q30.37-5.31 29.92-4.88Q29.46-4.45 29.34-3.60ZM40.02 0L35.53 0L35.53-0.85L37.12-0.85L37.12-5.24L35.53-5.24L35.53-6.09L37.93-6.09L38.00-4.91Q38.12-5.43 38.41-5.72L38.41-5.72Q38.80-6.09 39.46-6.09L39.46-6.09L40.71-6.09L40.71-5.22L39.47-5.22Q39.02-5.22 38.71-5.04Q38.41-4.86 38.25-4.53Q38.09-4.19 38.09-3.68L38.09-3.68L38.09-0.85L40.02-0.85L40.02 0Z" fill="#9AA1AB"/></g></svg>
